<svg width="621" height="604" viewBox="0 0 621 604" fill="none" xmlns="http://www.w3.org/2000/svg">
<g clip-path="url(#clip0_403_654)">
<path d="M59.719 508.817L54.2498 487.9C44.5526 483.915 34.6313 480.463 24.5333 477.561L23.8429 487.282L21.0433 476.572C8.51985 473.101 0 471.573 0 471.573C0 471.573 11.5054 514.01 35.6452 546.453L63.7701 551.244L41.9206 554.299C44.9571 557.842 48.2204 561.196 51.6911 564.342C86.8035 595.947 125.913 610.448 139.043 596.73C152.174 583.012 134.353 546.271 99.2411 514.669C88.3559 504.871 74.682 497.008 60.9938 490.819L59.719 508.817Z" fill="#F2F2F2"/>
<path d="M111.732 486.097L118.2 465.45C112.024 457.178 105.371 449.25 98.274 441.704L92.5013 449.68L95.8128 439.108C86.9411 429.862 80.4622 424.284 80.4622 424.284C80.4622 424.284 67.6937 466.38 71.062 506.252L92.5846 524.451L72.2484 516.114C72.9599 520.669 73.9663 525.177 75.2614 529.611C88.4727 574.266 114.222 606.283 132.774 601.122C151.327 595.96 155.657 555.576 142.446 510.92C138.35 497.076 130.835 483.491 122.417 471.333L111.732 486.097Z" fill="#F2F2F2"/>
<path d="M433.33 143.088H429.919V52.4569C429.919 45.5681 428.52 38.7469 425.801 32.3825C423.083 26.0181 419.098 20.2353 414.075 15.3643C409.052 10.4932 403.088 6.62924 396.525 3.99304C389.962 1.35683 382.928 0 375.824 0H177.808C163.461 0 149.702 5.52669 139.557 15.3643C129.413 25.2018 123.713 38.5444 123.713 52.4569V549.675C123.713 556.563 125.113 563.385 127.831 569.749C130.55 576.113 134.534 581.896 139.557 586.767C144.581 591.638 150.544 595.502 157.107 598.138C163.67 600.775 170.704 602.132 177.808 602.132H375.824C390.171 602.131 403.93 596.605 414.074 586.767C424.219 576.929 429.918 563.587 429.918 549.675V207.601H433.33L433.33 143.088Z" fill="#E6E6E6"/>
<path d="M378.007 13.6423H352.161C353.35 16.4685 353.804 19.5347 353.482 22.571C353.161 25.6072 352.075 28.5202 350.319 31.0534C348.563 33.5865 346.192 35.6621 343.414 37.0971C340.636 38.5322 337.537 39.2827 334.39 39.2826H220.949C217.801 39.2824 214.702 38.5317 211.925 37.0965C209.147 35.6614 206.776 33.5858 205.02 31.0527C203.265 28.5196 202.178 25.6067 201.857 22.5706C201.536 19.5344 201.99 16.4683 203.178 13.6423H179.037C168.323 13.6423 158.048 17.7696 150.472 25.1162C142.896 32.4628 138.64 42.427 138.64 52.8166V549.312C138.64 559.702 142.896 569.666 150.472 577.013C158.048 584.359 168.323 588.487 179.037 588.487H378.007C388.721 588.487 398.996 584.359 406.572 577.013C414.148 569.666 418.404 559.702 418.404 549.312V52.8158C418.404 42.4263 414.148 32.4624 406.572 25.1159C398.996 17.7695 388.721 13.6423 378.007 13.6423Z" fill="white"/>
<path d="M253.168 211.421C253.167 207.951 254.109 204.541 255.899 201.536C257.689 198.531 260.264 196.036 263.364 194.302C260.266 192.567 256.75 191.653 253.172 191.652C249.593 191.652 246.078 192.565 242.979 194.3C239.879 196.035 237.306 198.53 235.516 201.535C233.727 204.541 232.785 207.95 232.785 211.42C232.785 214.89 233.727 218.299 235.516 221.304C237.306 224.309 239.879 226.805 242.979 228.54C246.078 230.274 249.593 231.188 253.172 231.187C256.75 231.187 260.266 230.273 263.364 228.537C260.264 226.804 257.69 224.31 255.9 221.305C254.11 218.3 253.168 214.891 253.168 211.421Z" fill="#CCCCCC"/>
<path d="M278.794 211.421C278.794 207.951 279.736 204.541 281.526 201.536C283.316 198.531 285.89 196.036 288.991 194.302C285.892 192.567 282.377 191.653 278.798 191.652C275.22 191.652 271.704 192.565 268.605 194.3C265.506 196.035 262.932 198.53 261.143 201.535C259.353 204.541 258.411 207.95 258.411 211.42C258.411 214.89 259.353 218.299 261.143 221.304C262.932 224.309 265.506 226.805 268.605 228.54C271.704 230.274 275.22 231.188 278.798 231.187C282.377 231.187 285.892 230.273 288.991 228.537C285.891 226.804 283.316 224.31 281.526 221.305C279.736 218.3 278.794 214.891 278.794 211.421Z" fill="#CCCCCC"/>
<path d="M303.838 231.188C315.097 231.188 324.223 222.338 324.223 211.42C324.223 200.503 315.097 191.653 303.838 191.653C292.58 191.653 283.454 200.503 283.454 211.42C283.454 222.338 292.58 231.188 303.838 231.188Z" fill="#00BFA6"/>
<path d="M337.906 273.162H219.1C217.969 273.16 216.885 272.724 216.085 271.949C215.285 271.173 214.835 270.122 214.834 269.025V153.816C214.835 152.719 215.285 151.667 216.085 150.892C216.885 150.116 217.969 149.68 219.1 149.679H337.906C339.037 149.68 340.122 150.116 340.921 150.892C341.721 151.667 342.171 152.719 342.172 153.816V269.025C342.171 270.122 341.721 271.173 340.921 271.949C340.122 272.724 339.037 273.16 337.906 273.162ZM219.1 151.334C218.422 151.335 217.771 151.597 217.291 152.062C216.811 152.528 216.541 153.158 216.541 153.817V269.026C216.541 269.684 216.811 270.315 217.291 270.78C217.771 271.245 218.422 271.507 219.1 271.508H337.906C338.585 271.507 339.236 271.245 339.715 270.78C340.195 270.315 340.465 269.684 340.466 269.026V153.817C340.465 153.158 340.195 152.528 339.715 152.062C339.236 151.597 338.585 151.335 337.906 151.334H219.1Z" fill="#CCCCCC"/>
<path d="M364.434 361.475H182.221V363.13H364.434V361.475Z" fill="#CCCCCC"/>
<path d="M187.976 351.143C191.154 351.143 193.73 348.644 193.73 345.562C193.73 342.481 191.154 339.982 187.976 339.982C184.798 339.982 182.221 342.481 182.221 345.562C182.221 348.644 184.798 351.143 187.976 351.143Z" fill="#00BFA6"/>
<path d="M364.434 417.273H182.221V418.928H364.434V417.273Z" fill="#CCCCCC"/>
<path d="M187.976 406.942C191.154 406.942 193.73 404.443 193.73 401.361C193.73 398.28 191.154 395.781 187.976 395.781C184.798 395.781 182.221 398.28 182.221 401.361C182.221 404.443 184.798 406.942 187.976 406.942Z" fill="#00BFA6"/>
<path d="M361.099 480.814H303.515C302.521 480.813 301.567 480.429 300.863 479.747C300.16 479.065 299.765 478.14 299.763 477.176V457.604C299.765 456.639 300.16 455.715 300.863 455.033C301.567 454.351 302.521 453.967 303.515 453.966H361.099C362.094 453.967 363.048 454.351 363.751 455.033C364.454 455.715 364.85 456.639 364.851 457.604V477.176C364.85 478.14 364.454 479.065 363.751 479.747C363.048 480.429 362.094 480.813 361.099 480.814Z" fill="#00BFA6"/>
<path d="M206.746 351.143C209.924 351.143 212.5 348.644 212.5 345.562C212.5 342.481 209.924 339.982 206.746 339.982C203.568 339.982 200.992 342.481 200.992 345.562C200.992 348.644 203.568 351.143 206.746 351.143Z" fill="#00BFA6"/>
<path d="M225.517 351.143C228.695 351.143 231.271 348.644 231.271 345.562C231.271 342.481 228.695 339.982 225.517 339.982C222.339 339.982 219.762 342.481 219.762 345.562C219.762 348.644 222.339 351.143 225.517 351.143Z" fill="#00BFA6"/>
<path d="M206.746 406.942C209.924 406.942 212.5 404.443 212.5 401.361C212.5 398.28 209.924 395.781 206.746 395.781C203.568 395.781 200.992 398.28 200.992 401.361C200.992 404.443 203.568 406.942 206.746 406.942Z" fill="#00BFA6"/>
<path d="M225.517 406.942C228.695 406.942 231.271 404.443 231.271 401.361C231.271 398.28 228.695 395.781 225.517 395.781C222.339 395.781 219.762 398.28 219.762 401.361C219.762 404.443 222.339 406.942 225.517 406.942Z" fill="#00BFA6"/>
<path d="M618.681 604H20.0763C18.7948 604 17.7568 603.559 17.7568 603.015C17.7568 602.472 18.7948 602.03 20.0763 602.03H618.681C619.961 602.03 621 602.471 621 603.015C621 603.559 619.961 604 618.681 604Z" fill="#3F3D56"/>
<path d="M470.786 395.722C471.195 395.903 471.589 396.116 471.962 396.358L509.357 380.881L510.692 371.329L525.633 371.24L524.751 393.149L475.394 405.806C475.29 406.139 475.166 406.465 475.021 406.783C474.308 408.26 473.16 409.499 471.723 410.345C470.285 411.191 468.622 411.607 466.942 411.539C465.262 411.472 463.639 410.925 462.279 409.966C460.919 409.008 459.881 407.681 459.295 406.152C458.71 404.623 458.604 402.961 458.989 401.374C459.375 399.787 460.236 398.345 461.464 397.231C462.691 396.117 464.231 395.379 465.89 395.11C467.548 394.842 469.252 395.055 470.786 395.722Z" fill="#FFB8B8"/>
<path d="M531.068 594.253H520.846L515.984 556.021L531.069 556.022L531.068 594.253Z" fill="#FFB8B8"/>
<path d="M513.545 591.421H533.258V603.456H501.133C501.133 600.264 502.441 597.203 504.769 594.946C507.096 592.689 510.253 591.421 513.545 591.421Z" fill="#2F2E41"/>
<path d="M570.82 591.452L560.647 592.424L551.942 554.839L566.955 553.405L570.82 591.452Z" fill="#FFB8B8"/>
<path d="M553.096 590.299L572.713 588.426L573.93 600.404L541.961 603.457C541.801 601.884 541.962 600.296 542.435 598.784C542.908 597.271 543.684 595.864 544.718 594.642C545.752 593.42 547.024 592.408 548.462 591.663C549.899 590.918 551.474 590.454 553.096 590.299Z" fill="#2F2E41"/>
<path d="M533.913 330.779C545.222 330.779 554.39 321.889 554.39 310.922C554.39 299.955 545.222 291.065 533.913 291.065C522.603 291.065 513.435 299.955 513.435 310.922C513.435 321.889 522.603 330.779 533.913 330.779Z" fill="#FFB8B8"/>
<path d="M518.562 586.521C517.684 586.524 516.833 586.225 516.159 585.678C515.486 585.131 515.033 584.371 514.881 583.532C509.59 555.053 492.297 461.932 491.884 459.353C491.874 459.293 491.87 459.233 491.871 459.173V452.23C491.87 451.977 491.951 451.731 492.103 451.525L494.388 448.422C494.497 448.273 494.639 448.15 494.804 448.062C494.969 447.975 495.153 447.925 495.341 447.917C508.366 447.325 551.021 445.589 553.082 448.086C555.152 450.595 554.42 458.197 554.253 459.696L554.261 459.852L573.424 578.696C573.574 579.643 573.333 580.61 572.754 581.387C572.174 582.164 571.302 582.689 570.327 582.847L558.358 584.759C557.466 584.898 556.553 584.722 555.784 584.263C555.015 583.804 554.442 583.093 554.168 582.259C550.466 570.788 538.053 532.199 533.751 517.267C533.724 517.173 533.662 517.091 533.578 517.037C533.493 516.983 533.391 516.961 533.291 516.975C533.191 516.989 533.099 517.037 533.034 517.112C532.968 517.186 532.932 517.281 532.933 517.38C533.148 531.613 533.668 567.929 533.847 580.471L533.866 581.822C533.874 582.737 533.528 583.621 532.896 584.3C532.264 584.979 531.393 585.403 530.454 585.49L518.912 586.506C518.795 586.517 518.678 586.521 518.562 586.521Z" fill="#2F2E41"/>
<path d="M520.917 338.587C517.343 340.647 515.205 344.433 513.978 348.285C511.706 355.417 510.339 362.79 509.906 370.243L508.609 392.557L492.555 451.714C506.469 463.13 514.495 460.536 533.225 451.197C551.955 441.859 554.095 454.311 554.095 454.311L557.84 403.976L563.192 348.973C561.99 347.57 560.631 346.303 559.138 345.194C554.192 341.464 548.438 338.872 542.308 337.612C536.179 336.352 529.834 336.458 523.753 337.921L520.917 338.587Z" fill="#00BFA6"/>
<path d="M515.702 407.669C516.134 407.827 516.553 408.017 516.954 408.238L553.928 390.292L554.542 380.57L569.794 379.55L570.611 401.713L521.2 417.558C520.796 419.237 519.875 420.756 518.56 421.914C517.244 423.072 515.596 423.815 513.835 424.043C512.074 424.271 510.282 423.973 508.7 423.19C507.117 422.407 505.818 421.175 504.975 419.658C504.131 418.141 503.784 416.411 503.98 414.699C504.175 412.986 504.904 411.372 506.068 410.07C507.233 408.769 508.778 407.842 510.499 407.413C512.22 406.984 514.035 407.074 515.702 407.669Z" fill="#FFB8B8"/>
<path d="M562.924 349.225C572.021 352.338 573.624 386.07 573.624 386.07C562.921 380.362 550.078 389.703 550.078 389.703C550.078 389.703 547.402 380.881 544.192 369.465C543.222 366.254 543.106 362.857 543.855 359.591C544.603 356.324 546.192 353.295 548.472 350.784C548.472 350.784 553.827 346.109 562.924 349.225Z" fill="#00BFA6"/>
<path d="M552.274 316.173C549.722 314.194 546.241 317.791 546.241 317.791L544.2 299.978C544.2 299.978 531.443 301.46 523.279 299.483C515.115 297.507 513.839 306.659 513.839 306.659C513.418 302.962 513.333 299.236 513.584 295.525C514.094 291.072 520.728 286.618 532.464 283.649C544.2 280.68 550.323 293.546 550.323 293.546C558.488 297.504 554.825 318.153 552.274 316.173Z" fill="#2F2E41"/>
</g>
<defs>
<clipPath id="clip0_403_654">
<rect width="621" height="604" fill="white"/>
</clipPath>
</defs>
</svg>
