<svg width="0" height="0" class="hidden">
  <symbol fill="none" xmlns="http://www.w3.org/2000/svg" viewBox="0 0 24 24" id="darkmode">
    <path d="M12 24C18.6276 24 24 18.6276 24 12C24 11.4444 23.1672 11.352 22.8804 11.8284C22.2687 12.8416 21.4344 13.7023 20.4408 14.3454C19.4472 14.9884 18.3203 15.3969 17.1454 15.5399C15.9705 15.6829 14.7785 15.5566 13.6597 15.1707C12.5408 14.7848 11.5244 14.1494 10.6875 13.3125C9.85065 12.4756 9.21518 11.4592 8.82927 10.3403C8.44335 9.22148 8.31712 8.02947 8.46012 6.8546C8.60312 5.67973 9.0116 4.5528 9.65464 3.55918C10.2977 2.56556 11.1584 1.73131 12.1716 1.1196C12.648 0.8316 12.5556 0 12 0C5.3724 0 0 5.3724 0 12C0 18.6276 5.3724 24 12 24Z" fill="#629196"></path>
  </symbol>
  <symbol fill="none" xmlns="http://www.w3.org/2000/svg" viewBox="0 0 14 18" id="decreased">
    <path d="M6.70694 16.0001L7.41394 16.7071L6.70694 17.4141L5.99994 16.7071L6.70694 16.0001ZM5.70694 1.00006C5.70694 0.734846 5.8123 0.480492 5.99983 0.292955C6.18737 0.105419 6.44172 6.29425e-05 6.70694 6.29425e-05C6.97216 6.29425e-05 7.22651 0.105419 7.41405 0.292955C7.60158 0.480492 7.70694 0.734846 7.70694 1.00006H5.70694ZM13.4139 10.7071L7.41394 16.7071L5.99994 15.2931L11.9999 9.29306L13.4139 10.7071ZM5.99994 16.7071L-6.00815e-05 10.7071L1.41394 9.29306L7.41394 15.2931L5.99994 16.7071ZM5.70694 16.0001V1.00006H7.70694V16.0001H5.70694Z" fill="#DC2626"></path>
  </symbol>
  <symbol fill="none" xmlns="http://www.w3.org/2000/svg" viewBox="0 0 14 18" id="increased">
    <path d="M6.707 1.414L6 0.707L6.707 0L7.414 0.707L6.707 1.414ZM7.707 16.414C7.707 16.6792 7.60164 16.9336 7.41411 17.1211C7.22657 17.3086 6.97222 17.414 6.707 17.414C6.44178 17.414 6.18743 17.3086 5.99989 17.1211C5.81236 16.9336 5.707 16.6792 5.707 16.414H7.707ZM0 6.707L6 0.707L7.414 2.121L1.414 8.121L0 6.707ZM7.414 0.707L13.414 6.707L12 8.121L6 2.121L7.414 0.707ZM7.707 1.414V16.414H5.707V1.414H7.707Z" fill="#16A34A"></path>
  </symbol>
  <symbol fill="none" xmlns="http://www.w3.org/2000/svg" viewBox="0 0 23 24" id="bell">
    <path d="M21.8996 17.5323C21.2592 16.4292 20.3072 13.3079 20.3072 9.23117C20.3072 6.78291 19.3347 4.43493 17.6035 2.70375C15.8723 0.972567 13.5243 0 11.0761 0C8.62781 0 6.27982 0.972567 4.54864 2.70375C2.81746 4.43493 1.8449 6.78291 1.8449 9.23117C1.8449 13.309 0.891778 16.4292 0.251366 17.5323C0.0878247 17.8127 0.00112539 18.1314 1.08824e-05 18.456C-0.00110362 18.7806 0.0834063 19.0998 0.245018 19.3814C0.40663 19.663 0.639628 19.8969 0.920516 20.0597C1.2014 20.2225 1.52025 20.3083 1.8449 20.3086H6.55395C6.76692 21.3507 7.33331 22.2873 8.15732 22.96C8.98133 23.6326 10.0124 24 11.0761 24C12.1398 24 13.1708 23.6326 13.9948 22.96C14.8188 22.2873 15.3852 21.3507 15.5982 20.3086H20.3072C20.6318 20.3081 20.9505 20.2221 21.2312 20.0593C21.5119 19.8964 21.7448 19.6624 21.9062 19.3809C22.0677 19.0994 22.1521 18.7803 22.151 18.4557C22.1498 18.1312 22.0631 17.8127 21.8996 17.5323ZM11.0761 22.1548C10.5035 22.1546 9.94511 21.977 9.47768 21.6464C9.01026 21.3157 8.6568 20.8484 8.46595 20.3086H13.6862C13.4953 20.8484 13.1419 21.3157 12.6744 21.6464C12.207 21.977 11.6486 22.1546 11.0761 22.1548ZM1.8449 18.4623C2.7334 16.9346 3.69113 13.3944 3.69113 9.23117C3.69113 7.27256 4.46918 5.39417 5.85413 4.00923C7.23907 2.62429 9.11746 1.84623 11.0761 1.84623C13.0347 1.84623 14.9131 2.62429 16.298 4.00923C17.6829 5.39417 18.461 7.27256 18.461 9.23117C18.461 13.391 19.4164 16.9311 20.3072 18.4623H1.8449Z" fill="#629196"></path>
  </symbol>
  <symbol fill="none" xmlns="http://www.w3.org/2000/svg" viewBox="0 0 34 24" id="sidebar">
    <path d="M0 1.56522C0 1.1501 0.164906 0.751977 0.458441 0.458441C0.751977 0.164906 1.1501 0 1.56522 0H23.4783C23.8934 0 24.2915 0.164906 24.585 0.458441C24.8786 0.751977 25.0435 1.1501 25.0435 1.56522C25.0435 1.98034 24.8786 2.37846 24.585 2.67199C24.2915 2.96553 23.8934 3.13043 23.4783 3.13043H1.56522C1.1501 3.13043 0.751977 2.96553 0.458441 2.67199C0.164906 2.37846 0 1.98034 0 1.56522ZM0 22.4348C0 22.0197 0.164906 21.6215 0.458441 21.328C0.751977 21.0345 1.1501 20.8696 1.56522 20.8696H21.3913C21.8064 20.8696 22.2045 21.0345 22.4981 21.328C22.7916 21.6215 22.9565 22.0197 22.9565 22.4348C22.9565 22.8499 22.7916 23.248 22.4981 23.5416C22.2045 23.8351 21.8064 24 21.3913 24H1.56522C1.1501 24 0.751977 23.8351 0.458441 23.5416C0.164906 23.248 0 22.8499 0 22.4348ZM1.56522 10.4348C1.1501 10.4348 0.751977 10.5997 0.458441 10.8932C0.164906 11.1868 0 11.5849 0 12C0 12.4151 0.164906 12.8132 0.458441 13.1068C0.751977 13.4003 1.1501 13.5652 1.56522 13.5652H31.8261C32.2412 13.5652 32.6393 13.4003 32.9329 13.1068C33.2264 12.8132 33.3913 12.4151 33.3913 12C33.3913 11.5849 33.2264 11.1868 32.9329 10.8932C32.6393 10.5997 32.2412 10.4348 31.8261 10.4348H1.56522Z" fill="#629196"></path>
  </symbol>
  <symbol fill="none" xmlns="http://www.w3.org/2000/svg" viewBox="0 0 24 24" id="search">
    <path d="M23.6322 21.591L18.1915 16.1503C19.5014 14.4065 20.2085 12.284 20.2061 10.103C20.2061 4.53226 15.6738 0 10.103 0C4.53226 0 0 4.53226 0 10.103C0 15.6738 4.53226 20.2061 10.103 20.2061C12.284 20.2085 14.4065 19.5014 16.1503 18.1915L21.591 23.6322C21.8664 23.8783 22.2256 24.0098 22.5948 23.9994C22.9641 23.9891 23.3154 23.8378 23.5766 23.5766C23.8378 23.3154 23.9891 22.9641 23.9994 22.5948C24.0098 22.2256 23.8783 21.8664 23.6322 21.591ZM2.88658 10.103C2.88658 8.67576 3.30982 7.28053 4.10277 6.09379C4.89573 4.90705 6.02279 3.9821 7.34142 3.4359C8.66006 2.88971 10.111 2.7468 11.5109 3.02525C12.9108 3.30369 14.1966 3.99099 15.2058 5.00023C16.2151 6.00947 16.9024 7.29532 17.1808 8.69518C17.4593 10.095 17.3164 11.546 16.7702 12.8647C16.224 14.1833 15.299 15.3103 14.1123 16.1033C12.9255 16.8963 11.5303 17.3195 10.103 17.3195C8.18982 17.3172 6.35562 16.5562 5.00277 15.2033C3.64992 13.8505 2.88888 12.0163 2.88658 10.103Z" fill="#629196"></path>
  </symbol>
  <symbol fill="none" xmlns="http://www.w3.org/2000/svg" viewBox="0 0 24 24" id="support">
    <path d="M12 24C10.34 24 8.78 23.6848 7.32 23.0544C5.86 22.424 4.59 21.5692 3.51 20.49C2.43 19.41 1.5752 18.14 0.9456 16.68C0.316 15.22 0.0008 13.66 0 12C0 10.34 0.3152 8.78 0.9456 7.32C1.576 5.86 2.4308 4.59 3.51 3.51C4.59 2.43 5.86 1.5752 7.32 0.9456C8.78 0.316 10.34 0.0008 12 0C13.66 0 15.22 0.3152 16.68 0.9456C18.14 1.576 19.41 2.4308 20.49 3.51C21.57 4.59 22.4252 5.86 23.0556 7.32C23.686 8.78 24.0008 10.34 24 12C24 13.66 23.6848 15.22 23.0544 16.68C22.424 18.14 21.5692 19.41 20.49 20.49C19.41 21.57 18.14 22.4252 16.68 23.0556C15.22 23.686 13.66 24.0008 12 24ZM8.52 20.94L9.96 17.64C9.12 17.34 8.3952 16.8752 7.7856 16.2456C7.176 15.616 6.7008 14.8808 6.36 14.04L3.06 15.42C3.52 16.7 4.23 17.82 5.19 18.78C6.15 19.74 7.26 20.46 8.52 20.94ZM6.36 9.96C6.7 9.12 7.1752 8.3852 7.7856 7.7556C8.396 7.126 9.1208 6.6608 9.96 6.36L8.58 3.06C7.3 3.54 6.18 4.26 5.22 5.22C4.26 6.18 3.54 7.3 3.06 8.58L6.36 9.96ZM12 15.6C13 15.6 13.85 15.25 14.55 14.55C15.25 13.85 15.6 13 15.6 12C15.6 11 15.25 10.15 14.55 9.45C13.85 8.75 13 8.4 12 8.4C11 8.4 10.15 8.75 9.45 9.45C8.75 10.15 8.4 11 8.4 12C8.4 13 8.75 13.85 9.45 14.55C10.15 15.25 11 15.6 12 15.6ZM15.48 20.94C16.74 20.46 17.8452 19.7452 18.7956 18.7956C19.746 17.846 20.4608 16.7408 20.94 15.48L17.64 14.04C17.34 14.88 16.88 15.6052 16.26 16.2156C15.64 16.826 14.92 17.3008 14.1 17.64L15.48 20.94ZM17.64 9.9L20.94 8.52C20.46 7.26 19.7452 6.1552 18.7956 5.2056C17.846 4.256 16.7408 3.5408 15.48 3.06L14.1 6.42C14.92 6.72 15.63 7.1752 16.23 7.7856C16.83 8.396 17.3 9.1008 17.64 9.9Z" fill="#649297"></path>
  </symbol>
  <symbol fill="none" xmlns="http://www.w3.org/2000/svg" viewBox="0 0 19 21" id="github">
    <path d="M5.02399 1.30982C5.77495 1.56421 6.48936 1.91587 7.14899 2.35582C8.08057 2.11773 9.03846 1.99812 9.99998 1.99982C10.993 1.99982 11.951 2.12382 12.849 2.35482C13.5084 1.91529 14.2224 1.56398 14.973 1.30982C15.67 1.07282 16.663 0.688818 17.253 1.34182C17.653 1.78582 17.753 2.52982 17.824 3.09782C17.904 3.73182 17.923 4.55782 17.713 5.37782C18.516 6.41482 19 7.65182 19 8.99982C19 11.0418 17.894 12.8148 16.257 14.0428C15.4692 14.6263 14.5954 15.0838 13.667 15.3988C13.881 15.8888 14 16.4308 14 16.9998V19.9998C14 20.265 13.8946 20.5194 13.7071 20.7069C13.5196 20.8945 13.2652 20.9998 13 20.9998H6.99999C6.73477 20.9998 6.48041 20.8945 6.29288 20.7069C6.10534 20.5194 5.99999 20.265 5.99999 19.9998V19.0088C5.04499 19.1258 4.24399 19.0218 3.56299 18.7328C2.85099 18.4308 2.35499 17.9628 1.98199 17.5148C1.62799 17.0908 1.24199 16.1348 0.683985 15.9488C0.559361 15.9073 0.44413 15.8417 0.344873 15.7557C0.245615 15.6696 0.164275 15.5649 0.105495 15.4474C-0.0132154 15.2102 -0.0328232 14.9355 0.0509852 14.6838C0.134794 14.4321 0.315153 14.224 0.552386 14.1053C0.78962 13.9866 1.06429 13.967 1.31599 14.0508C1.98199 14.2728 2.41599 14.7528 2.71299 15.1388C3.19299 15.7588 3.58299 16.5688 4.34299 16.8918C4.65599 17.0248 5.11499 17.1118 5.83299 17.0138L5.99999 16.9798C6.00189 16.4356 6.11522 15.8976 6.33299 15.3988C5.40457 15.0838 4.5308 14.6264 3.74299 14.0428C2.10599 12.8148 0.999985 11.0428 0.999985 8.99982C0.999985 7.65382 1.48299 6.41782 2.28399 5.38182C2.07399 4.56182 2.09199 3.73382 2.17199 3.09882L2.17699 3.06082C2.24999 2.47882 2.33499 1.79382 2.74299 1.34182C3.33299 0.688818 4.32698 1.07382 5.02298 1.31082L5.02399 1.30982Z" fill="#649297"></path>
  </symbol>
  <symbol fill="none" xmlns="http://www.w3.org/2000/svg" viewBox="0 0 24 24" id="dashboard">
    <path fill-rule="evenodd" clip-rule="evenodd" d="M9.15195 2.05276C9.22083 2.27208 9.19983 2.50977 9.09356 2.71362C8.9873 2.91747 8.80447 3.0708 8.58523 3.13993C6.59839 3.76544 4.86283 5.00833 3.63085 6.68793C2.39887 8.36752 1.73469 10.3963 1.73486 12.4792C1.7347 13.7643 1.98768 15.0367 2.47933 16.224C2.97099 17.4113 3.69169 18.49 4.60029 19.3987C5.50889 20.3075 6.58758 21.0283 7.77478 21.5201C8.96198 22.0119 10.2344 22.265 11.5195 22.265C13.6023 22.2652 15.6309 21.6012 17.3105 20.3695C18.9901 19.1377 20.233 17.4024 20.8588 15.4158C20.8899 15.3036 20.9433 15.1989 21.0158 15.1078C21.0882 15.0167 21.1783 14.9412 21.2806 14.8856C21.3829 14.8301 21.4953 14.7957 21.6111 14.7845C21.727 14.7733 21.8439 14.7855 21.9549 14.8205C22.066 14.8554 22.1688 14.9123 22.2574 14.9878C22.346 15.0634 22.4184 15.1559 22.4705 15.2601C22.5225 15.3642 22.5531 15.4777 22.5603 15.5939C22.5676 15.71 22.5514 15.8265 22.5127 15.9362C21.0461 20.6088 16.6801 23.9999 11.5206 23.9999C5.15831 23.9999 0 18.8415 0 12.4804C0 7.31978 3.39107 2.95488 8.06477 1.48604C8.28424 1.41721 8.52207 1.43837 8.72595 1.54486C8.92982 1.65135 9.08306 1.8333 9.15195 2.05276Z" fill="#649297"></path>
    <path d="M23.8983 9.19124C23.2896 7.0237 22.1337 5.0491 20.5417 3.45712C18.9498 1.86515 16.9752 0.709295 14.8076 0.100591C12.9062 -0.430275 11.2766 1.219 11.2766 3.19211V10.9342C11.2766 11.9207 12.077 12.7211 13.0635 12.7211H20.8056C22.7799 12.7211 24.4291 11.0915 23.8983 9.19124Z" fill="#649297"></path>
  </symbol>
  <symbol fill="none" xmlns="http://www.w3.org/2000/svg" viewBox="0 0 24 24" id="home">
    <path d="M24 22.7189C24 23.0587 23.8595 23.3845 23.6095 23.6248C23.3594 23.865 23.0203 24 22.6667 24H1.33333C0.979712 24 0.640573 23.865 0.390525 23.6248C0.140476 23.3845 3.20947e-07 23.0587 3.20947e-07 22.7189V9.25438C-0.000140645 9.05915 0.0461562 8.86648 0.135355 8.69107C0.224553 8.51566 0.354294 8.36216 0.514667 8.2423L11.1813 0.269923C11.4154 0.0949811 11.7035 0 12 0C12.2965 0 12.5846 0.0949811 12.8187 0.269923L23.4853 8.2423C23.6457 8.36216 23.7754 8.51566 23.8646 8.69107C23.9538 8.86648 24.0001 9.05915 24 9.25438V22.7189ZM21.3333 21.4378V9.87956L12 2.90517L2.66667 9.87956V21.4378H21.3333Z" fill="#629196"></path>
  </symbol>
  <symbol fill="none" xmlns="http://www.w3.org/2000/svg" viewBox="0 0 21 26" id="db">
    <path d="M1 20.1998V5.7998M20.2 12.9998V20.1998" stroke="#629196" stroke-width="1.5" stroke-linecap="round"></path>
    <path d="M10.6 10.6C15.9016 10.6 20.2 8.452 20.2 5.8C20.2 3.148 15.9016 1 10.6 1C5.2984 1 1 3.148 1 5.8C1 8.452 5.2984 10.6 10.6 10.6Z" stroke="#629196" stroke-width="1.5"></path>
    <path d="M20.2 13C20.2 15.652 15.9016 17.8 10.6 17.8C5.2984 17.8 1 15.652 1 13" stroke="#629196" stroke-width="1.5" stroke-linecap="round"></path>
    <path d="M20.2 20.2002C20.2 22.8522 15.9016 25.0002 10.6 25.0002C5.2984 25.0002 1 22.8522 1 20.2002" stroke="#629196" stroke-width="1.5"></path>
  </symbol>
  <symbol fill="none" xmlns="http://www.w3.org/2000/svg" viewBox="0 0 20 20" id="menu">
    <path d="M2 10C2 10.2652 2.10536 10.5196 2.29289 10.7071C2.48043 10.8946 2.73478 11 3 11C3.26522 11 3.51957 10.8946 3.70711 10.7071C3.89464 10.5196 4 10.2652 4 10C4 9.73478 3.89464 9.48043 3.70711 9.29289C3.51957 9.10536 3.26522 9 3 9C2.73478 9 2.48043 9.10536 2.29289 9.29289C2.10536 9.48043 2 9.73478 2 10ZM9 10C9 10.2652 9.10536 10.5196 9.29289 10.7071C9.48043 10.8946 9.73478 11 10 11C10.2652 11 10.5196 10.8946 10.7071 10.7071C10.8946 10.5196 11 10.2652 11 10C11 9.73478 10.8946 9.48043 10.7071 9.29289C10.5196 9.10536 10.2652 9 10 9C9.73478 9 9.48043 9.10536 9.29289 9.29289C9.10536 9.48043 9 9.73478 9 10ZM16 10C16 10.2652 16.1054 10.5196 16.2929 10.7071C16.4804 10.8946 16.7348 11 17 11C17.2652 11 17.5196 10.8946 17.7071 10.7071C17.8946 10.5196 18 10.2652 18 10C18 9.73478 17.8946 9.48043 17.7071 9.29289C17.5196 9.10536 17.2652 9 17 9C16.7348 9 16.4804 9.10536 16.2929 9.29289C16.1054 9.48043 16 9.73478 16 10Z" stroke="#014E56" stroke-width="2" stroke-linecap="round" stroke-linejoin="round"></path>
  </symbol>
  <symbol fill="none" xmlns="http://www.w3.org/2000/svg" viewBox="0 0 17 11" id="arrow-bottom">
    <path d="M1 1.00016L8.5 9.3335L16 1.00016" stroke="#67959A" stroke-width="2" stroke-linecap="round" stroke-linejoin="round"></path>
  </symbol>
  <symbol fill="none" xmlns="http://www.w3.org/2000/svg" viewBox="0 0 30 16" id="hide">
    <path d="M15 4.8C13.915 4.8 12.8745 5.13714 12.1073 5.73726C11.3401 6.33737 10.9091 7.15131 10.9091 8C10.9091 8.84869 11.3401 9.66263 12.1073 10.2627C12.8745 10.8629 13.915 11.2 15 11.2C16.085 11.2 17.1255 10.8629 17.8927 10.2627C18.6599 9.66263 19.0909 8.84869 19.0909 8C19.0909 7.15131 18.6599 6.33737 17.8927 5.73726C17.1255 5.13714 16.085 4.8 15 4.8ZM15 13.3333C13.1917 13.3333 11.4575 12.7714 10.1788 11.7712C8.90016 10.771 8.18182 9.41449 8.18182 8C8.18182 6.58551 8.90016 5.22896 10.1788 4.22876C11.4575 3.22857 13.1917 2.66667 15 2.66667C16.8083 2.66667 18.5425 3.22857 19.8212 4.22876C21.0998 5.22896 21.8182 6.58551 21.8182 8C21.8182 9.41449 21.0998 10.771 19.8212 11.7712C18.5425 12.7714 16.8083 13.3333 15 13.3333ZM15 0C8.18182 0 2.35909 3.31733 0 8C2.35909 12.6827 8.18182 16 15 16C21.8182 16 27.6409 12.6827 30 8C27.6409 3.31733 21.8182 0 15 0Z" fill="#629196"></path>
  </symbol>
  <symbol fill="none" xmlns="http://www.w3.org/2000/svg" viewBox="0 0 42 42" id="facebook">
    <g clip-path="url(#clip0_403_400)">
      <path d="M41.4 21C41.4 9.73344 32.2665 0.599976 21 0.599976C9.73344 0.599976 0.599976 9.73344 0.599976 21C0.599976 31.1821 8.06 39.6218 17.8125 41.1521V26.8968H12.6328V21H17.8125V16.5056C17.8125 11.3928 20.8581 8.56872 25.5179 8.56872C27.7498 8.56872 30.0844 8.96716 30.0844 8.96716V13.9875H27.512C24.9778 13.9875 24.1875 15.56 24.1875 17.1734V21H29.8453L28.9408 26.8968H24.1875V41.1521C33.9399 39.6218 41.4 31.1823 41.4 21Z" fill="#1877F2"></path>
      <path d="M28.9408 26.8968L29.8453 21H24.1875V17.1734C24.1875 15.5599 24.9778 13.9875 27.512 13.9875H30.0843V8.96716C30.0843 8.96716 27.7498 8.56873 25.5178 8.56873C20.8581 8.56873 17.8125 11.3929 17.8125 16.5056V21H12.6328V26.8968H17.8125V41.1521C18.8669 41.3174 19.9326 41.4003 21 41.4C22.0673 41.4003 23.133 41.3174 24.1875 41.1521V26.8968H28.9408Z" fill="#F7F7F7"></path>
    </g>
    <defs>
      <clipPath id="clip0_403_400">
        <rect x="0.599976" y="0.599976" width="40.8" height="40.8" rx="20.4" fill="white"></rect>
      </clipPath>
    </defs>
  </symbol>
  <symbol fill="none" xmlns="http://www.w3.org/2000/svg" viewBox="0 0 15 15" id="remember-me">
    <path fill-rule="evenodd" clip-rule="evenodd" d="M2.0025 13.3929C1.86972 13.3929 1.74239 13.3364 1.6485 13.236C1.55462 13.1355 1.50187 12.9992 1.50187 12.8571V2.14286C1.50187 2.00078 1.55462 1.86452 1.6485 1.76405C1.74239 1.66358 1.86972 1.60714 2.0025 1.60714H11.264C11.4632 1.60714 11.6542 1.52248 11.795 1.37178C11.9359 1.22108 12.015 1.01669 12.015 0.803571C12.015 0.590451 11.9359 0.38606 11.795 0.235361C11.6542 0.0846618 11.4632 3.17574e-09 11.264 0H2.0025C1.4714 0 0.962059 0.225765 0.586518 0.627628C0.210977 1.02949 0 1.57454 0 2.14286V12.8571C0 13.4255 0.210977 13.9705 0.586518 14.3724C0.962059 14.7742 1.4714 15 2.0025 15H12.015C12.5461 15 13.0554 14.7742 13.431 14.3724C13.8065 13.9705 14.0175 13.4255 14.0175 12.8571V9.375C14.0175 9.16188 13.9384 8.95749 13.7975 8.80679C13.6567 8.65609 13.4657 8.57143 13.2665 8.57143C13.0674 8.57143 12.8764 8.65609 12.7356 8.80679C12.5947 8.95749 12.5156 9.16188 12.5156 9.375V12.8571C12.5156 12.9992 12.4629 13.1355 12.369 13.236C12.2751 13.3364 12.1478 13.3929 12.015 13.3929H2.0025ZM14.7985 3.94286C14.9311 3.79053 15.0033 3.58905 14.9999 3.38087C14.9965 3.17269 14.9176 2.97406 14.7801 2.82683C14.6425 2.67961 14.4569 2.59527 14.2623 2.5916C14.0678 2.58792 13.8795 2.6652 13.7371 2.80714L8.17219 8.76107L6.29685 6.68679C6.22843 6.61028 6.14655 6.549 6.05593 6.50647C5.9653 6.46394 5.86771 6.441 5.76877 6.43896C5.66983 6.43693 5.57149 6.45584 5.4794 6.49461C5.38731 6.53338 5.30329 6.59124 5.23217 6.66488C5.16105 6.73851 5.10423 6.82646 5.06499 6.92367C5.02574 7.02088 5.00483 7.12543 5.00347 7.23132C5.0021 7.3372 5.02031 7.44233 5.05704 7.54066C5.09378 7.63899 5.14831 7.72858 5.21751 7.80429L6.42051 9.135L7.62351 10.4657C7.69274 10.5425 7.77557 10.6039 7.86718 10.6461C7.95879 10.6882 8.05734 10.7105 8.15708 10.7115C8.25681 10.7125 8.35573 10.6922 8.44806 10.6519C8.54039 10.6115 8.62429 10.5519 8.69484 10.4764L14.7985 3.94286Z" fill="#014E56" fill-opacity="0.6"></path>
  </symbol>
  <symbol fill="none" xmlns="http://www.w3.org/2000/svg" viewBox="0 0 12 19" id="arrow-left">
    <path d="M10.3333 2L2 9.5L10.3333 17" stroke="#014E56" stroke-width="3" stroke-linecap="round" stroke-linejoin="round"></path>
  </symbol>
  <symbol fill="none" xmlns="http://www.w3.org/2000/svg" viewBox="0 0 34 34" id="google">
    <path d="M33.6694 13.6705H32.3V13.6H17V20.4H26.6076C25.2059 24.3584 21.4396 27.2 17 27.2C11.3671 27.2 6.8 22.6329 6.8 17C6.8 11.367 11.3671 6.8 17 6.8C19.6002 6.8 21.9657 7.7809 23.7669 9.38315L28.5753 4.5747C25.5391 1.74505 21.4778 0 17 0C7.61175 0 0 7.61175 0 17C0 26.3882 7.61175 34 17 34C26.3883 34 34 26.3882 34 17C34 15.8601 33.8827 14.7475 33.6694 13.6705Z" fill="#FFC107"></path>
    <path d="M1.96011 9.08735L7.54546 13.1835C9.05676 9.4418 12.7169 6.8 17 6.8C19.6002 6.8 21.9657 7.7809 23.7669 9.38315L28.5753 4.5747C25.5391 1.74505 21.4778 0 17 0C10.4703 0 4.80761 3.68645 1.96011 9.08735Z" fill="#FF3D00"></path>
    <path d="M17 34C21.3911 34 25.381 32.3196 28.3977 29.5868L23.1362 25.1345C21.372 26.4762 19.2163 27.2018 17 27.2C12.5783 27.2 8.82385 24.3806 7.40945 20.4459L1.86575 24.7172C4.67925 30.2226 10.393 34 17 34Z" fill="#4CAF50"></path>
    <path d="M33.6694 13.6705H32.3V13.6H17V20.4H26.6076C25.9371 22.2839 24.7294 23.9302 23.1336 25.1353L23.1362 25.1336L28.3977 29.5859C28.0254 29.9242 34 25.5 34 17C34 15.8601 33.8827 14.7475 33.6694 13.6705Z" fill="#1976D2"></path>
  </symbol>
  <symbol fill="none" xmlns="http://www.w3.org/2000/svg" viewBox="0 0 24 28" id="name">
    <path d="M19 7C19 8.85651 18.2625 10.637 16.9497 11.9497C15.637 13.2625 13.8565 14 12 14C10.1435 14 8.36301 13.2625 7.05025 11.9497C5.7375 10.637 5 8.85651 5 7C5 5.14348 5.7375 3.36301 7.05025 2.05025C8.36301 0.737498 10.1435 0 12 0C13.8565 0 15.637 0.737498 16.9497 2.05025C18.2625 3.36301 19 5.14348 19 7ZM17 7C17 5.67392 16.4732 4.40215 15.5355 3.46447C14.5979 2.52678 13.3261 2 12 2C10.6739 2 9.40215 2.52678 8.46447 3.46447C7.52678 4.40215 7 5.67392 7 7C7 8.32608 7.52678 9.59785 8.46447 10.5355C9.40215 11.4732 10.6739 12 12 12C13.3261 12 14.5979 11.4732 15.5355 10.5355C16.4732 9.59785 17 8.32608 17 7ZM3.5 16C2.57174 16 1.6815 16.3687 1.02513 17.0251C0.368749 17.6815 0 18.5717 0 19.5V20C0 22.393 1.523 24.417 3.685 25.793C5.859 27.177 8.802 28 12 28C15.198 28 18.14 27.177 20.315 25.793C22.477 24.417 24 22.393 24 20V19.5C24 18.5717 23.6313 17.6815 22.9749 17.0251C22.3185 16.3687 21.4283 16 20.5 16H3.5ZM2 19.5C2 19.1022 2.15803 18.7206 2.43934 18.4393C2.72064 18.158 3.10217 18 3.5 18H20.5C20.8978 18 21.2794 18.158 21.5607 18.4393C21.842 18.7206 22 19.1022 22 19.5V20C22 21.473 21.06 22.949 19.241 24.106C17.434 25.256 14.877 26 12 26C9.123 26 6.566 25.256 4.759 24.106C2.939 22.95 2 21.472 2 20V19.5Z" fill="#014E56" fill-opacity="0.6"></path>
  </symbol>
  <symbol fill="none" xmlns="http://www.w3.org/2000/svg" viewBox="0 0 22 22" id="date">
    <path d="M1 10.5C1 6.729 1 4.843 2.172 3.672C3.343 2.5 5.229 2.5 9 2.5H13C16.771 2.5 18.657 2.5 19.828 3.672C21 4.843 21 6.729 21 10.5V12.5C21 16.271 21 18.157 19.828 19.328C18.657 20.5 16.771 20.5 13 20.5H9C5.229 20.5 3.343 20.5 2.172 19.328C1 18.157 1 16.271 1 12.5V10.5Z" stroke="#629196" stroke-width="2"></path>
    <path d="M6 2.5V1M16 2.5V1M1.5 7.5H20.5" stroke="#629196" stroke-width="2" stroke-linecap="round"></path>
    <path d="M17 15.5C17 15.7652 16.8946 16.0196 16.7071 16.2071C16.5196 16.3946 16.2652 16.5 16 16.5C15.7348 16.5 15.4804 16.3946 15.2929 16.2071C15.1054 16.0196 15 15.7652 15 15.5C15 15.2348 15.1054 14.9804 15.2929 14.7929C15.4804 14.6054 15.7348 14.5 16 14.5C16.2652 14.5 16.5196 14.6054 16.7071 14.7929C16.8946 14.9804 17 15.2348 17 15.5ZM17 11.5C17 11.7652 16.8946 12.0196 16.7071 12.2071C16.5196 12.3946 16.2652 12.5 16 12.5C15.7348 12.5 15.4804 12.3946 15.2929 12.2071C15.1054 12.0196 15 11.7652 15 11.5C15 11.2348 15.1054 10.9804 15.2929 10.7929C15.4804 10.6054 15.7348 10.5 16 10.5C16.2652 10.5 16.5196 10.6054 16.7071 10.7929C16.8946 10.9804 17 11.2348 17 11.5ZM12 15.5C12 15.7652 11.8946 16.0196 11.7071 16.2071C11.5196 16.3946 11.2652 16.5 11 16.5C10.7348 16.5 10.4804 16.3946 10.2929 16.2071C10.1054 16.0196 10 15.7652 10 15.5C10 15.2348 10.1054 14.9804 10.2929 14.7929C10.4804 14.6054 10.7348 14.5 11 14.5C11.2652 14.5 11.5196 14.6054 11.7071 14.7929C11.8946 14.9804 12 15.2348 12 15.5ZM12 11.5C12 11.7652 11.8946 12.0196 11.7071 12.2071C11.5196 12.3946 11.2652 12.5 11 12.5C10.7348 12.5 10.4804 12.3946 10.2929 12.2071C10.1054 12.0196 10 11.7652 10 11.5C10 11.2348 10.1054 10.9804 10.2929 10.7929C10.4804 10.6054 10.7348 10.5 11 10.5C11.2652 10.5 11.5196 10.6054 11.7071 10.7929C11.8946 10.9804 12 11.2348 12 11.5ZM7 15.5C7 15.7652 6.89464 16.0196 6.70711 16.2071C6.51957 16.3946 6.26522 16.5 6 16.5C5.73478 16.5 5.48043 16.3946 5.29289 16.2071C5.10536 16.0196 5 15.7652 5 15.5C5 15.2348 5.10536 14.9804 5.29289 14.7929C5.48043 14.6054 5.73478 14.5 6 14.5C6.26522 14.5 6.51957 14.6054 6.70711 14.7929C6.89464 14.9804 7 15.2348 7 15.5ZM7 11.5C7 11.7652 6.89464 12.0196 6.70711 12.2071C6.51957 12.3946 6.26522 12.5 6 12.5C5.73478 12.5 5.48043 12.3946 5.29289 12.2071C5.10536 12.0196 5 11.7652 5 11.5C5 11.2348 5.10536 10.9804 5.29289 10.7929C5.48043 10.6054 5.73478 10.5 6 10.5C6.26522 10.5 6.51957 10.6054 6.70711 10.7929C6.89464 10.9804 7 11.2348 7 11.5Z" fill="#629196"></path>
  </symbol>
  <symbol fill="none" xmlns="http://www.w3.org/2000/svg" viewBox="0 0 12 19" id="arrow-right">
    <path d="M1.66667 2L10 9.5L1.66667 17" stroke="#014E56" stroke-width="3" stroke-linecap="round" stroke-linejoin="round"></path>
  </symbol>
  <symbol fill="none" xmlns="http://www.w3.org/2000/svg" viewBox="0 0 30 23" id="show">
    <path d="M16.7432 3.97661C16.1709 3.92297 15.5894 3.89222 15 3.88457C12.4244 3.89447 9.75443 4.43744 7.22718 5.47785C5.35073 6.28216 3.52285 7.41765 1.93543 8.81829C1.1558 9.53329 0.160775 10.5686 0 11.6731C0.019 12.63 1.20383 13.811 1.93543 14.528C3.424 15.8736 5.20428 16.9766 7.22718 17.8685C7.29593 17.8974 7.36493 17.926 7.43408 17.9541L5.55728 20.7947L8.1074 22.1009L21.8928 1.30017L19.4382 0L16.7432 3.97661ZM22.5641 5.39532L20.6909 8.20889C21.5527 9.17917 22.0642 10.3757 22.0642 11.6731C22.0642 14.907 18.9012 17.5289 14.9982 17.5289C14.8294 17.5289 14.6659 17.5131 14.5001 17.5035L13.2605 19.3633C13.8322 19.4164 14.4102 19.455 15 19.4617C17.5781 19.4517 20.2465 18.9025 22.771 17.8685C24.6474 17.0641 26.4771 15.9287 28.0646 14.528C28.8442 13.813 29.8392 12.7777 30 11.6731C29.981 10.7163 28.7962 9.5353 28.0646 8.81827C26.576 7.47264 24.7939 6.36965 22.771 5.47781C22.7027 5.44912 22.6328 5.42332 22.5641 5.39532ZM14.9982 5.81746C15.1693 5.81746 15.3391 5.82339 15.5072 5.83332L14.0552 8.01214C12.0173 8.3702 10.4883 9.87287 10.4883 11.6716C10.4883 12.1234 10.5843 12.556 10.7611 12.9569C10.7613 12.9574 10.7609 12.9581 10.7611 12.9586L9.3054 15.1437C8.44163 14.1726 7.9321 12.9721 7.9321 11.6731C7.93213 8.43925 11.0952 5.81743 14.9982 5.81746ZM19.2224 10.4115L15.9503 15.3246C17.9772 14.9598 19.4953 13.464 19.4953 11.6716C19.4953 11.228 19.3931 10.8062 19.2224 10.4115Z" fill="#014E56" fill-opacity="0.6"></path>
  </symbol>
</svg>