<svg class="hidden">
  <symbol version="1.1" xmlns="http://www.w3.org/2000/svg" xmlns:xlink="http://www.w3.org/1999/xlink" xml:space="preserve" xmlnsSerif="http://www.serif.com/" viewBox="0 0 64 64" id="github">
    <rect id="Icons" x="0" y="-192"></rect>
    <g id="Icons1" serifId="Icons">
      <g id="Strike"></g>
      <g id="H1"></g>
      <g id="H2"></g>
      <g id="H3"></g>
      <g id="list-ul"></g>
      <g id="hamburger-1"></g>
      <g id="hamburger-2"></g>
      <g id="list-ol"></g>
      <g id="list-task"></g>
      <g id="trash"></g>
      <g id="vertical-menu"></g>
      <g id="horizontal-menu"></g>
      <g id="sidebar-2"></g>
      <g id="Pen"></g>
      <g id="Pen1" serifId="Pen"></g>
      <g id="clock"></g>
      <g id="external-link"></g>
      <g id="hr"></g>
      <g id="info"></g>
      <g id="warning"></g>
      <g id="plus-circle"></g>
      <g id="minus-circle"></g>
      <g id="vue"></g>
      <g id="cog"></g>
      <path id="github" d="M32.029,8.345c-13.27,0 -24.029,10.759 -24.029,24.033c0,10.617 6.885,19.624 16.435,22.803c1.202,0.22 1.64,-0.522 1.64,-1.16c0,-0.569 -0.02,-2.081 -0.032,-4.086c-6.685,1.452 -8.095,-3.222 -8.095,-3.222c-1.093,-2.775 -2.669,-3.514 -2.669,-3.514c-2.182,-1.492 0.165,-1.462 0.165,-1.462c2.412,0.171 3.681,2.477 3.681,2.477c2.144,3.672 5.625,2.611 6.994,1.997c0.219,-1.553 0.838,-2.612 1.526,-3.213c-5.336,-0.606 -10.947,-2.669 -10.947,-11.877c0,-2.623 0.937,-4.769 2.474,-6.449c-0.247,-0.608 -1.072,-3.051 0.235,-6.36c0,0 2.018,-0.646 6.609,2.464c1.917,-0.533 3.973,-0.8 6.016,-0.809c2.041,0.009 4.097,0.276 6.017,0.809c4.588,-3.11 6.602,-2.464 6.602,-2.464c1.311,3.309 0.486,5.752 0.239,6.36c1.54,1.68 2.471,3.826 2.471,6.449c0,9.232 -5.62,11.263 -10.974,11.858c0.864,0.742 1.632,2.208 1.632,4.451c0,3.212 -0.029,5.804 -0.029,6.591c0,0.644 0.432,1.392 1.652,1.157c9.542,-3.185 16.421,-12.186 16.421,-22.8c0,-13.274 -10.76,-24.033 -24.034,-24.033"></path>
      <g id="logo"></g>
      <g id="radio-check"></g>
      <g id="eye-slash"></g>
      <g id="eye"></g>
      <g id="toggle-off"></g>
      <g id="shredder"></g>
      <g id="spinner--loading--dots-" serifId="spinner [loading, dots]"></g>
      <g id="react"></g>
      <g id="check-selected"></g>
      <g id="turn-off"></g>
      <g id="code-block"></g>
      <g id="user"></g>
      <g id="coffee-bean"></g>
      <g id="coffee-beans">
        <g id="coffee-bean1" serifId="coffee-bean"></g>
      </g>
      <g id="coffee-bean-filled"></g>
      <g id="coffee-beans-filled">
        <g id="coffee-bean2" serifId="coffee-bean"></g>
      </g>
      <g id="clipboard"></g>
      <g id="clipboard-paste"></g>
      <g id="clipboard-copy"></g>
      <g id="Layer1"></g>
    </g>
  </symbol>
  <symbol xmlns="http://www.w3.org/2000/svg" viewBox="0 0 488 512" id="google">
    <path d="M488 261.8C488 403.3 391.1 504 248 504 110.8 504 0 393.2 0 256S110.8 8 248 8c66.8 0 123 24.5 166.3 64.9l-67.5 64.9C258.5 52.6 94.3 116.6 94.3 256c0 86.5 69.1 156.6 153.7 156.6 98.2 0 135-70.4 140.8-106.9H248v-85.3h236.1c2.3 12.7 3.9 24.9 3.9 41.4z"></path>
  </symbol>
  <symbol xmlns="http://www.w3.org/2000/svg" viewBox="0 0 24 24" id="help">
    <path d="M19.5816 18.5209C21.0889 16.7701 22 14.4915 22 12C22 9.50853 21.0889 7.22987 19.5816 5.47906L15.3089 9.75178C15.745 10.3925 16 11.1665 16 12C16 12.8335 15.745 13.6075 15.3089 14.2482L19.5816 18.5209Z"></path>
    <path d="M18.5209 19.5816C16.7701 21.0889 14.4915 22 12 22C9.50853 22 7.22987 21.0889 5.47906 19.5816L9.75178 15.3089C10.3925 15.745 11.1665 16 12 16C12.8335 16 13.6075 15.745 14.2482 15.3089L18.5209 19.5816Z"></path>
    <path d="M4.4184 18.5209L8.69112 14.2482C8.25495 13.6075 8 12.8335 8 12C8 11.1665 8.25495 10.3925 8.69112 9.75178L4.4184 5.47906C2.91114 7.22987 2 9.50853 2 12C2 14.4915 2.91114 16.7701 4.4184 18.5209Z"></path>
    <path d="M12 8C11.1665 8 10.3925 8.25495 9.75178 8.69112L5.47906 4.4184C7.22987 2.91114 9.50853 2 12 2C14.4915 2 16.7701 2.91114 18.5209 4.4184L14.2482 8.69112C13.6075 8.25495 12.8335 8 12 8Z"></path>
  </symbol>
  <symbol xmlns="http://www.w3.org/2000/svg" viewBox="0 0 24 24" id="lock">
    <path fill-rule="evenodd" clip-rule="evenodd" d="M5.25 10.0546V8C5.25 4.27208 8.27208 1.25 12 1.25C15.7279 1.25 18.75 4.27208 18.75 8V10.0546C19.8648 10.1379 20.5907 10.348 21.1213 10.8787C22 11.7574 22 13.1716 22 16C22 18.8284 22 20.2426 21.1213 21.1213C20.2426 22 18.8284 22 16 22H8C5.17157 22 3.75736 22 2.87868 21.1213C2 20.2426 2 18.8284 2 16C2 13.1716 2 11.7574 2.87868 10.8787C3.40931 10.348 4.13525 10.1379 5.25 10.0546ZM6.75 8C6.75 5.10051 9.10051 2.75 12 2.75C14.8995 2.75 17.25 5.10051 17.25 8V10.0036C16.867 10 16.4515 10 16 10H8C7.54849 10 7.13301 10 6.75 10.0036V8Z"></path>
  </symbol>
  <symbol xmlns="http://www.w3.org/2000/svg" viewBox="0 0 24 24" id="pie-chart">
    <path d="M6.22209 4.60105C6.66665 4.304 7.13344 4.04636 7.6171 3.82976C8.98898 3.21539 9.67491 2.9082 10.5875 3.4994C11.5 4.09061 11.5 5.06041 11.5 7.00001V8.50001C11.5 10.3856 11.5 11.3284 12.0858 11.9142C12.6716 12.5 13.6144 12.5 15.5 12.5H17C18.9396 12.5 19.9094 12.5 20.5006 13.4125C21.0918 14.3251 20.7846 15.011 20.1702 16.3829C19.9536 16.8666 19.696 17.3334 19.399 17.7779C18.3551 19.3402 16.8714 20.5578 15.1355 21.2769C13.3996 21.9959 11.4895 22.184 9.64665 21.8175C7.80383 21.4509 6.11109 20.5461 4.78249 19.2175C3.45389 17.8889 2.5491 16.1962 2.18254 14.3534C1.81598 12.5105 2.00412 10.6004 2.72315 8.86451C3.44218 7.12861 4.65982 5.64492 6.22209 4.60105Z"></path>
    <path d="M21.446 7.06901C20.6342 5.00831 18.9917 3.36579 16.931 2.55398C15.3895 1.94669 14 3.34316 14 5.00002V9.00002C14 9.5523 14.4477 10 15 10H19C20.6569 10 22.0533 8.61055 21.446 7.06901Z"></path>
  </symbol>
  <symbol xmlns="http://www.w3.org/2000/svg" viewBox="0 0 24 24" id="settings">
    <path fill-rule="evenodd" clip-rule="evenodd" d="M14.2788 2.15224C13.9085 2 13.439 2 12.5 2C11.561 2 11.0915 2 10.7212 2.15224C10.2274 2.35523 9.83509 2.74458 9.63056 3.23463C9.53719 3.45834 9.50065 3.7185 9.48635 4.09799C9.46534 4.65568 9.17716 5.17189 8.69017 5.45093C8.20318 5.72996 7.60864 5.71954 7.11149 5.45876C6.77318 5.2813 6.52789 5.18262 6.28599 5.15102C5.75609 5.08178 5.22018 5.22429 4.79616 5.5472C4.47814 5.78938 4.24339 6.1929 3.7739 6.99993C3.30441 7.80697 3.06967 8.21048 3.01735 8.60491C2.94758 9.1308 3.09118 9.66266 3.41655 10.0835C3.56506 10.2756 3.77377 10.437 4.0977 10.639C4.57391 10.936 4.88032 11.4419 4.88029 12C4.88026 12.5581 4.57386 13.0639 4.0977 13.3608C3.77372 13.5629 3.56497 13.7244 3.41645 13.9165C3.09108 14.3373 2.94749 14.8691 3.01725 15.395C3.06957 15.7894 3.30432 16.193 3.7738 17C4.24329 17.807 4.47804 18.2106 4.79606 18.4527C5.22008 18.7756 5.75599 18.9181 6.28589 18.8489C6.52778 18.8173 6.77305 18.7186 7.11133 18.5412C7.60852 18.2804 8.2031 18.27 8.69012 18.549C9.17714 18.8281 9.46533 19.3443 9.48635 19.9021C9.50065 20.2815 9.53719 20.5417 9.63056 20.7654C9.83509 21.2554 10.2274 21.6448 10.7212 21.8478C11.0915 22 11.561 22 12.5 22C13.439 22 13.9085 22 14.2788 21.8478C14.7726 21.6448 15.1649 21.2554 15.3694 20.7654C15.4628 20.5417 15.4994 20.2815 15.5137 19.902C15.5347 19.3443 15.8228 18.8281 16.3098 18.549C16.7968 18.2699 17.3914 18.2804 17.8886 18.5412C18.2269 18.7186 18.4721 18.8172 18.714 18.8488C19.2439 18.9181 19.7798 18.7756 20.2038 18.4527C20.5219 18.2105 20.7566 17.807 21.2261 16.9999C21.6956 16.1929 21.9303 15.7894 21.9827 15.395C22.0524 14.8691 21.9088 14.3372 21.5835 13.9164C21.4349 13.7243 21.2262 13.5628 20.9022 13.3608C20.4261 13.0639 20.1197 12.558 20.1197 11.9999C20.1197 11.4418 20.4261 10.9361 20.9022 10.6392C21.2263 10.4371 21.435 10.2757 21.5836 10.0835C21.9089 9.66273 22.0525 9.13087 21.9828 8.60497C21.9304 8.21055 21.6957 7.80703 21.2262 7C20.7567 6.19297 20.522 5.78945 20.2039 5.54727C19.7799 5.22436 19.244 5.08185 18.7141 5.15109C18.4722 5.18269 18.2269 5.28136 17.8887 5.4588C17.3915 5.71959 16.7969 5.73002 16.3099 5.45096C15.8229 5.17191 15.5347 4.65566 15.5136 4.09794C15.4993 3.71848 15.4628 3.45833 15.3694 3.23463C15.1649 2.74458 14.7726 2.35523 14.2788 2.15224ZM12.5 15C14.1695 15 15.5228 13.6569 15.5228 12C15.5228 10.3431 14.1695 9 12.5 9C10.8305 9 9.47716 10.3431 9.47716 12C9.47716 13.6569 10.8305 15 12.5 15Z"></path>
  </symbol>
  <symbol xmlns="http://www.w3.org/2000/svg" viewBox="0 0 24 24" id="sun">
    <path d="M17 12C17 14.7614 14.7614 17 12 17C9.23858 17 7 14.7614 7 12C7 9.23858 9.23858 7 12 7C14.7614 7 17 9.23858 17 12Z"></path>
    <path fill-rule="evenodd" clip-rule="evenodd" d="M12 1.25C12.4142 1.25 12.75 1.58579 12.75 2V4C12.75 4.41421 12.4142 4.75 12 4.75C11.5858 4.75 11.25 4.41421 11.25 4V2C11.25 1.58579 11.5858 1.25 12 1.25ZM3.66865 3.71609C3.94815 3.41039 4.42255 3.38915 4.72825 3.66865L6.95026 5.70024C7.25596 5.97974 7.2772 6.45413 6.9977 6.75983C6.7182 7.06553 6.2438 7.08677 5.9381 6.80727L3.71609 4.77569C3.41039 4.49619 3.38915 4.02179 3.66865 3.71609ZM20.3314 3.71609C20.6109 4.02179 20.5896 4.49619 20.2839 4.77569L18.0619 6.80727C17.7562 7.08677 17.2818 7.06553 17.0023 6.75983C16.7228 6.45413 16.744 5.97974 17.0497 5.70024L19.2718 3.66865C19.5775 3.38915 20.0518 3.41039 20.3314 3.71609ZM1.25 12C1.25 11.5858 1.58579 11.25 2 11.25H4C4.41421 11.25 4.75 11.5858 4.75 12C4.75 12.4142 4.41421 12.75 4 12.75H2C1.58579 12.75 1.25 12.4142 1.25 12ZM19.25 12C19.25 11.5858 19.5858 11.25 20 11.25H22C22.4142 11.25 22.75 11.5858 22.75 12C22.75 12.4142 22.4142 12.75 22 12.75H20C19.5858 12.75 19.25 12.4142 19.25 12ZM17.0255 17.0252C17.3184 16.7323 17.7933 16.7323 18.0862 17.0252L20.3082 19.2475C20.6011 19.5404 20.601 20.0153 20.3081 20.3082C20.0152 20.6011 19.5403 20.601 19.2475 20.3081L17.0255 18.0858C16.7326 17.7929 16.7326 17.3181 17.0255 17.0252ZM6.97467 17.0253C7.26756 17.3182 7.26756 17.7931 6.97467 18.086L4.75244 20.3082C4.45955 20.6011 3.98468 20.6011 3.69178 20.3082C3.39889 20.0153 3.39889 19.5404 3.69178 19.2476L5.91401 17.0253C6.2069 16.7324 6.68177 16.7324 6.97467 17.0253ZM12 19.25C12.4142 19.25 12.75 19.5858 12.75 20V22C12.75 22.4142 12.4142 22.75 12 22.75C11.5858 22.75 11.25 22.4142 11.25 22V20C11.25 19.5858 11.5858 19.25 12 19.25Z"></path>
  </symbol>
  <symbol xmlns="http://www.w3.org/2000/svg" viewBox="0 0 24 24" id="moon">
    <path stroke="none" d="M12 22C17.5228 22 22 17.5228 22 12C22 11.5373 21.3065 11.4608 21.0672 11.8568C19.9289 13.7406 17.8615 15 15.5 15C11.9101 15 9 12.0899 9 8.5C9 6.13845 10.2594 4.07105 12.1432 2.93276C12.5392 2.69347 12.4627 2 12 2C6.47715 2 2 6.47715 2 12C2 17.5228 6.47715 22 12 22Z"></path>
  </symbol>
  <symbol xmlns="http://www.w3.org/2000/svg" viewBox="0 0 24 24" id="bell">
    <path d="M8.35179 20.2418C9.19288 21.311 10.5142 22 12 22C13.4858 22 14.8071 21.311 15.6482 20.2418C13.2264 20.57 10.7736 20.57 8.35179 20.2418Z"></path>
    <path d="M18.7491 9V9.7041C18.7491 10.5491 18.9903 11.3752 19.4422 12.0782L20.5496 13.8012C21.5612 15.3749 20.789 17.5139 19.0296 18.0116C14.4273 19.3134 9.57274 19.3134 4.97036 18.0116C3.21105 17.5139 2.43882 15.3749 3.45036 13.8012L4.5578 12.0782C5.00972 11.3752 5.25087 10.5491 5.25087 9.7041V9C5.25087 5.13401 8.27256 2 12 2C15.7274 2 18.7491 5.13401 18.7491 9Z"></path>
  </symbol>
  <symbol xmlns="http://www.w3.org/2000/svg" viewBox="0 0 24 24" id="database">
    <path d="M20 18C20 20.2091 16.4183 22 12 22C7.58172 22 4 20.2091 4 18V13.974C4.50221 14.5906 5.21495 15.1029 6.00774 15.4992C7.58004 16.2854 9.69967 16.75 12 16.75C14.3003 16.75 16.42 16.2854 17.9923 15.4992C18.7851 15.1029 19.4978 14.5906 20 13.974V18Z"></path>
    <path d="M12 10.75C14.3003 10.75 16.42 10.2854 17.9923 9.49925C18.7851 9.10285 19.4978 8.59059 20 7.97397V12C20 12.5 18.2143 13.5911 17.3214 14.1576C15.9983 14.8192 14.118 15.25 12 15.25C9.88205 15.25 8.00168 14.8192 6.67856 14.1576C5.5 13.5683 4 12.5 4 12V7.97397C4.50221 8.59059 5.21495 9.10285 6.00774 9.49925C7.58004 10.2854 9.69967 10.75 12 10.75Z"></path>
    <path d="M17.3214 8.15761C15.9983 8.81917 14.118 9.25 12 9.25C9.88205 9.25 8.00168 8.81917 6.67856 8.15761C6.16384 7.95596 5.00637 7.31492 4.2015 6.27935C4.06454 6.10313 4.00576 5.87853 4.03988 5.65798C4.06283 5.50969 4.0948 5.35695 4.13578 5.26226C4.82815 3.40554 8.0858 2 12 2C15.9142 2 19.1718 3.40554 19.8642 5.26226C19.9052 5.35695 19.9372 5.50969 19.9601 5.65798C19.9942 5.87853 19.9355 6.10313 19.7985 6.27935C18.9936 7.31492 17.8362 7.95596 17.3214 8.15761Z"></path>
  </symbol>
  <symbol fill="none" xmlns="http://www.w3.org/2000/svg" viewBox="0 0 24 24" id="search">
    <path d="M11 20C15.9706 20 20 15.9706 20 11C20 6.02944 15.9706 2 11 2C6.02944 2 2 6.02944 2 11C2 15.9706 6.02944 20 11 20Z" stroke-width="1.5" stroke-linecap="round" stroke-linejoin="round"></path>
    <path d="M18.9299 20.6898C19.4599 22.2898 20.6699 22.4498 21.5999 21.0498C22.4499 19.7698 21.8899 18.7198 20.3499 18.7198C19.2099 18.7098 18.5699 19.5998 18.9299 20.6898Z" stroke-width="1.5" stroke-linecap="round" stroke-linejoin="round"></path>
  </symbol>
</svg>