<svg width="0" height="0" class="hidden">
  <symbol fill="none" xmlns="http://www.w3.org/2000/svg" viewBox="0 0 35 41" id="apple">
    <path d="M31.8402 35.6976C30.0601 38.2271 28.1727 40.6953 25.2987 40.7361C22.4247 40.7973 21.5025 39.1246 18.2425 39.1246C14.961 39.1246 13.9529 40.6953 11.2291 40.7973C8.41945 40.8993 6.29614 38.1047 4.49454 35.6364C0.826998 30.598 -1.98264 21.3166 1.79214 15.0746C3.65808 11.974 7.00391 10.0157 10.6286 9.95454C13.3738 9.91374 15.9905 11.7292 17.6848 11.7292C19.3577 11.7292 22.532 9.54657 25.8564 9.87294C27.2504 9.93414 31.1539 10.4033 33.6633 13.9119C33.4702 14.0343 29.0091 16.5229 29.052 21.6838C29.1164 27.8441 34.7357 29.9044 34.8 29.9248C34.7357 30.0676 33.8992 32.8622 31.8402 35.6976ZM19.5937 3.0598C21.1593 1.36671 23.7545 0.0815946 25.8992 0C26.1781 2.38664 25.17 4.79368 23.6687 6.50717C22.1888 8.24105 19.7438 9.58736 17.3417 9.40378C17.0199 7.05793 18.221 4.61009 19.5937 3.0598Z" fill="black"></path>
  </symbol>

  <symbol fill="currentColor" xmlns="http://www.w3.org/2000/svg" viewBox="0 0 42 42" id="facebook">
    <g clip-path="url(#clip0_403_400)">
      <path d="M41.4 21C41.4 9.73344 32.2665 0.599976 21 0.599976C9.73344 0.599976 0.599976 9.73344 0.599976 21C0.599976 31.1821 8.06 39.6218 17.8125 41.1521V26.8968H12.6328V21H17.8125V16.5056C17.8125 11.3928 20.8581 8.56872 25.5179 8.56872C27.7498 8.56872 30.0844 8.96716 30.0844 8.96716V13.9875H27.512C24.9778 13.9875 24.1875 15.56 24.1875 17.1734V21H29.8453L28.9408 26.8968H24.1875V41.1521C33.9399 39.6218 41.4 31.1823 41.4 21Z" fill="#1877F2"></path>
      <path d="M28.9408 26.8968L29.8453 21H24.1875V17.1734C24.1875 15.5599 24.9778 13.9875 27.512 13.9875H30.0843V8.96716C30.0843 8.96716 27.7498 8.56873 25.5178 8.56873C20.8581 8.56873 17.8125 11.3929 17.8125 16.5056V21H12.6328V26.8968H17.8125V41.1521C18.8669 41.3174 19.9326 41.4003 21 41.4C22.0673 41.4003 23.133 41.3174 24.1875 41.1521V26.8968H28.9408Z" fill="#F7F7F7"></path>
    </g>
    <defs>
      <clipPath id="clip0_403_400">
        <rect x="0.599976" y="0.599976" width="40.8" height="40.8" rx="20.4" fill="white"></rect>
      </clipPath>
    </defs>
  </symbol>

  <symbol fill="none" xmlns="http://www.w3.org/2000/svg" viewBox="0 0 9 16" id="arrow-left">
    <g clip-path="url(#clip0_403_705)">
      <path d="M7.46667 1.3335L0.800003 8.00016L7.46667 14.6668" stroke="#014E56" stroke-width="2" stroke-linecap="round" stroke-linejoin="round"></path>
    </g>
    <defs>
      <clipPath id="clip0_403_705">
        <rect width="8.8" height="16" fill="white"></rect>
      </clipPath>
    </defs>
  </symbol>

  <symbol fill="none" xmlns="http://www.w3.org/2000/svg" viewBox="0 0 32 26" id="email">
    <path d="M7.66667 7.85714L13.9167 13C14.5079 13.4869 15.2426 13.7521 16 13.7521C16.7574 13.7521 17.4921 13.4869 18.0833 13L24.3333 7.85714M31 21.5714V4.42857C31 3.51926 30.6488 2.64719 30.0237 2.00421C29.3986 1.36122 28.5507 1 27.6667 1H4.33333C3.44928 1 2.60143 1.36122 1.97631 2.00421C1.35119 2.64719 1 3.51926 1 4.42857V21.5714C1 22.4807 1.35119 23.3528 1.97631 23.9958C2.60143 24.6388 3.44928 25 4.33333 25H27.6667C28.5507 25 29.3986 24.6388 30.0237 23.9958C30.6488 23.3528 31 22.4807 31 21.5714Z" stroke="#619196" stroke-width="2" stroke-linecap="round" stroke-linejoin="round"></path>
  </symbol>

  <symbol fill="none" xmlns="http://www.w3.org/2000/svg" viewBox="0 0 30 16" id="hide">
    <path d="M15 4.8C13.915 4.8 12.8745 5.13714 12.1073 5.73726C11.3401 6.33737 10.9091 7.15131 10.9091 8C10.9091 8.84869 11.3401 9.66263 12.1073 10.2627C12.8745 10.8629 13.915 11.2 15 11.2C16.085 11.2 17.1255 10.8629 17.8927 10.2627C18.6599 9.66263 19.0909 8.84869 19.0909 8C19.0909 7.15131 18.6599 6.33737 17.8927 5.73726C17.1255 5.13714 16.085 4.8 15 4.8ZM15 13.3333C13.1917 13.3333 11.4575 12.7714 10.1788 11.7712C8.90016 10.771 8.18182 9.41449 8.18182 8C8.18182 6.58551 8.90016 5.22896 10.1788 4.22876C11.4575 3.22857 13.1917 2.66667 15 2.66667C16.8083 2.66667 18.5425 3.22857 19.8212 4.22876C21.0998 5.22896 21.8182 6.58551 21.8182 8C21.8182 9.41449 21.0998 10.771 19.8212 11.7712C18.5425 12.7714 16.8083 13.3333 15 13.3333ZM15 0C8.18182 0 2.35909 3.31733 0 8C2.35909 12.6827 8.18182 16 15 16C21.8182 16 27.6409 12.6827 30 8C27.6409 3.31733 21.8182 0 15 0Z" fill="#629196"></path>
  </symbol>

  <symbol fill="none" xmlns="http://www.w3.org/2000/svg" viewBox="0 0 24 28" id="name">
    <path d="M19 7C19 8.85651 18.2625 10.637 16.9497 11.9497C15.637 13.2625 13.8565 14 12 14C10.1435 14 8.36301 13.2625 7.05025 11.9497C5.7375 10.637 5 8.85651 5 7C5 5.14348 5.7375 3.36301 7.05025 2.05025C8.36301 0.737498 10.1435 0 12 0C13.8565 0 15.637 0.737498 16.9497 2.05025C18.2625 3.36301 19 5.14348 19 7ZM17 7C17 5.67392 16.4732 4.40215 15.5355 3.46447C14.5979 2.52678 13.3261 2 12 2C10.6739 2 9.40215 2.52678 8.46447 3.46447C7.52678 4.40215 7 5.67392 7 7C7 8.32608 7.52678 9.59785 8.46447 10.5355C9.40215 11.4732 10.6739 12 12 12C13.3261 12 14.5979 11.4732 15.5355 10.5355C16.4732 9.59785 17 8.32608 17 7ZM3.5 16C2.57174 16 1.6815 16.3687 1.02513 17.0251C0.368749 17.6815 0 18.5717 0 19.5V20C0 22.393 1.523 24.417 3.685 25.793C5.859 27.177 8.802 28 12 28C15.198 28 18.14 27.177 20.315 25.793C22.477 24.417 24 22.393 24 20V19.5C24 18.5717 23.6313 17.6815 22.9749 17.0251C22.3185 16.3687 21.4283 16 20.5 16H3.5ZM2 19.5C2 19.1022 2.15803 18.7206 2.43934 18.4393C2.72064 18.158 3.10217 18 3.5 18H20.5C20.8978 18 21.2794 18.158 21.5607 18.4393C21.842 18.7206 22 19.1022 22 19.5V20C22 21.473 21.06 22.949 19.241 24.106C17.434 25.256 14.877 26 12 26C9.123 26 6.566 25.256 4.759 24.106C2.939 22.95 2 21.472 2 20V19.5Z" fill="#014E56" fill-opacity="0.6"></path>
  </symbol>

  <symbol fill="none" xmlns="http://www.w3.org/2000/svg" viewBox="0 0 34 34" id="google">
    <path d="M33.6694 13.6705H32.3V13.6H17V20.4H26.6076C25.2059 24.3584 21.4396 27.2 17 27.2C11.3671 27.2 6.8 22.6329 6.8 17C6.8 11.367 11.3671 6.8 17 6.8C19.6002 6.8 21.9657 7.7809 23.7669 9.38315L28.5753 4.5747C25.5391 1.74505 21.4778 0 17 0C7.61175 0 0 7.61175 0 17C0 26.3882 7.61175 34 17 34C26.3883 34 34 26.3882 34 17C34 15.8601 33.8827 14.7475 33.6694 13.6705Z" fill="#FFC107"></path>
    <path d="M1.96011 9.08735L7.54546 13.1835C9.05676 9.4418 12.7169 6.8 17 6.8C19.6002 6.8 21.9657 7.7809 23.7669 9.38315L28.5753 4.5747C25.5391 1.74505 21.4778 0 17 0C10.4703 0 4.80761 3.68645 1.96011 9.08735Z" fill="#FF3D00"></path>
    <path d="M17 34C21.3911 34 25.381 32.3196 28.3977 29.5868L23.1362 25.1345C21.372 26.4762 19.2163 27.2018 17 27.2C12.5783 27.2 8.82385 24.3806 7.40945 20.4459L1.86575 24.7172C4.67925 30.2226 10.393 34 17 34Z" fill="#4CAF50"></path>
    <path d="M33.6694 13.6705H32.3V13.6H17V20.4H26.6076C25.9371 22.2839 24.7294 23.9302 23.1336 25.1353L23.1362 25.1336L28.3977 29.5859C28.0254 29.9242 34 25.5 34 17C34 15.8601 33.8827 14.7475 33.6694 13.6705Z" fill="#1976D2"></path>
  </symbol>

  <symbol fill="none" xmlns="http://www.w3.org/2000/svg" viewBox="0 0 28 28" id="password">
    <path d="M1.5 19C1.5 15.465 1.5 13.6962 2.59875 12.5987C3.69625 11.5 5.465 11.5 9 11.5H19C22.535 11.5 24.3038 11.5 25.4013 12.5987C26.5 13.6962 26.5 15.465 26.5 19C26.5 22.535 26.5 24.3038 25.4013 25.4013C24.3038 26.5 22.535 26.5 19 26.5H9C5.465 26.5 3.69625 26.5 2.59875 25.4013C1.5 24.3038 1.5 22.535 1.5 19Z" stroke="#014E56" stroke-opacity="0.6" stroke-width="2"></path>
    <path d="M6.5 11.5V9C6.5 7.01088 7.29018 5.10322 8.6967 3.6967C10.1032 2.29018 12.0109 1.5 14 1.5C15.9891 1.5 17.8968 2.29018 19.3033 3.6967C20.7098 5.10322 21.5 7.01088 21.5 9V11.5" stroke="#014E56" stroke-opacity="0.6" stroke-width="2" stroke-linecap="round"></path>
    <path d="M9 19H9.01125M13.9888 19H14M18.9888 19H19" stroke="#014E56" stroke-opacity="0.6" stroke-width="2" stroke-linecap="round" stroke-linejoin="round"></path>
  </symbol>

  <symbol fill="none" xmlns="http://www.w3.org/2000/svg" viewBox="0 0 15 15" id="remember-me">
    <path fill-rule="evenodd" clip-rule="evenodd" d="M2.0025 13.3929C1.86972 13.3929 1.74239 13.3364 1.6485 13.236C1.55462 13.1355 1.50187 12.9992 1.50187 12.8571V2.14286C1.50187 2.00078 1.55462 1.86452 1.6485 1.76405C1.74239 1.66358 1.86972 1.60714 2.0025 1.60714H11.264C11.4632 1.60714 11.6542 1.52248 11.795 1.37178C11.9359 1.22108 12.015 1.01669 12.015 0.803571C12.015 0.590451 11.9359 0.38606 11.795 0.235361C11.6542 0.0846618 11.4632 3.17574e-09 11.264 0H2.0025C1.4714 0 0.962059 0.225765 0.586518 0.627628C0.210977 1.02949 0 1.57454 0 2.14286V12.8571C0 13.4255 0.210977 13.9705 0.586518 14.3724C0.962059 14.7742 1.4714 15 2.0025 15H12.015C12.5461 15 13.0554 14.7742 13.431 14.3724C13.8065 13.9705 14.0175 13.4255 14.0175 12.8571V9.375C14.0175 9.16188 13.9384 8.95749 13.7975 8.80679C13.6567 8.65609 13.4657 8.57143 13.2665 8.57143C13.0674 8.57143 12.8764 8.65609 12.7356 8.80679C12.5947 8.95749 12.5156 9.16188 12.5156 9.375V12.8571C12.5156 12.9992 12.4629 13.1355 12.369 13.236C12.2751 13.3364 12.1478 13.3929 12.015 13.3929H2.0025ZM14.7985 3.94286C14.9311 3.79053 15.0033 3.58905 14.9999 3.38087C14.9965 3.17269 14.9176 2.97406 14.7801 2.82683C14.6425 2.67961 14.4569 2.59527 14.2623 2.5916C14.0678 2.58792 13.8795 2.6652 13.7371 2.80714L8.17219 8.76107L6.29685 6.68679C6.22843 6.61028 6.14655 6.549 6.05593 6.50647C5.9653 6.46394 5.86771 6.441 5.76877 6.43896C5.66983 6.43693 5.57149 6.45584 5.4794 6.49461C5.38731 6.53338 5.30329 6.59124 5.23217 6.66488C5.16105 6.73851 5.10423 6.82646 5.06499 6.92367C5.02574 7.02088 5.00483 7.12543 5.00347 7.23132C5.0021 7.3372 5.02031 7.44233 5.05704 7.54066C5.09378 7.63899 5.14831 7.72858 5.21751 7.80429L6.42051 9.135L7.62351 10.4657C7.69274 10.5425 7.77557 10.6039 7.86718 10.6461C7.95879 10.6882 8.05734 10.7105 8.15708 10.7115C8.25681 10.7125 8.35573 10.6922 8.44806 10.6519C8.54039 10.6115 8.62429 10.5519 8.69484 10.4764L14.7985 3.94286Z" fill="#014E56" fill-opacity="0.6"></path>
  </symbol>

  <symbol fill="none" xmlns="http://www.w3.org/2000/svg" viewBox="0 0 30 23" id="show">
    <path d="M16.7432 3.97661C16.1709 3.92297 15.5894 3.89222 15 3.88457C12.4244 3.89447 9.75443 4.43744 7.22718 5.47785C5.35073 6.28216 3.52285 7.41765 1.93543 8.81829C1.1558 9.53329 0.160775 10.5686 0 11.6731C0.019 12.63 1.20383 13.811 1.93543 14.528C3.424 15.8736 5.20428 16.9766 7.22718 17.8685C7.29593 17.8974 7.36493 17.926 7.43408 17.9541L5.55728 20.7947L8.1074 22.1009L21.8928 1.30017L19.4382 0L16.7432 3.97661ZM22.5641 5.39532L20.6909 8.20889C21.5527 9.17917 22.0642 10.3757 22.0642 11.6731C22.0642 14.907 18.9012 17.5289 14.9982 17.5289C14.8294 17.5289 14.6659 17.5131 14.5001 17.5035L13.2605 19.3633C13.8322 19.4164 14.4102 19.455 15 19.4617C17.5781 19.4517 20.2465 18.9025 22.771 17.8685C24.6474 17.0641 26.4771 15.9287 28.0646 14.528C28.8442 13.813 29.8392 12.7777 30 11.6731C29.981 10.7163 28.7962 9.5353 28.0646 8.81827C26.576 7.47264 24.7939 6.36965 22.771 5.47781C22.7027 5.44912 22.6328 5.42332 22.5641 5.39532ZM14.9982 5.81746C15.1693 5.81746 15.3391 5.82339 15.5072 5.83332L14.0552 8.01214C12.0173 8.3702 10.4883 9.87287 10.4883 11.6716C10.4883 12.1234 10.5843 12.556 10.7611 12.9569C10.7613 12.9574 10.7609 12.9581 10.7611 12.9586L9.3054 15.1437C8.44163 14.1726 7.9321 12.9721 7.9321 11.6731C7.93213 8.43925 11.0952 5.81743 14.9982 5.81746ZM19.2224 10.4115L15.9503 15.3246C17.9772 14.9598 19.4953 13.464 19.4953 11.6716C19.4953 11.228 19.3931 10.8062 19.2224 10.4115Z" fill="#014E56" fill-opacity="0.6"></path>
  </symbol>

  <symbol viewBox="0 0 24 24" fill="none" xmlns="http://www.w3.org/2000/svg" id="search">
    <path d="M11 20C15.9706 20 20 15.9706 20 11C20 6.02944 15.9706 2 11 2C6.02944 2 2 6.02944 2 11C2 15.9706 6.02944 20 11 20Z" stroke="#292D32" stroke-width="1.5" stroke-linecap="round" stroke-linejoin="round"/>
    <path d="M18.9299 20.6898C19.4599 22.2898 20.6699 22.4498 21.5999 21.0498C22.4499 19.7698 21.8899 18.7198 20.3499 18.7198C19.2099 18.7098 18.5699 19.5998 18.9299 20.6898Z" stroke="#292D32" stroke-width="1.5" stroke-linecap="round" stroke-linejoin="round"/>
  </symbol>

  <symbol viewBox="0 0 24 24" fill="none" xmlns="http://www.w3.org/2000/svg" id="database">
    <path d="M20 18C20 20.2091 16.4183 22 12 22C7.58172 22 4 20.2091 4 18V13.974C4.50221 14.5906 5.21495 15.1029 6.00774 15.4992C7.58004 16.2854 9.69967 16.75 12 16.75C14.3003 16.75 16.42 16.2854 17.9923 15.4992C18.7851 15.1029 19.4978 14.5906 20 13.974V18Z" fill="#1C274C"/>
    <path d="M12 10.75C14.3003 10.75 16.42 10.2854 17.9923 9.49925C18.7851 9.10285 19.4978 8.59059 20 7.97397V12C20 12.5 18.2143 13.5911 17.3214 14.1576C15.9983 14.8192 14.118 15.25 12 15.25C9.88205 15.25 8.00168 14.8192 6.67856 14.1576C5.5 13.5683 4 12.5 4 12V7.97397C4.50221 8.59059 5.21495 9.10285 6.00774 9.49925C7.58004 10.2854 9.69967 10.75 12 10.75Z" fill="#1C274C"/>
    <path d="M17.3214 8.15761C15.9983 8.81917 14.118 9.25 12 9.25C9.88205 9.25 8.00168 8.81917 6.67856 8.15761C6.16384 7.95596 5.00637 7.31492 4.2015 6.27935C4.06454 6.10313 4.00576 5.87853 4.03988 5.65798C4.06283 5.50969 4.0948 5.35695 4.13578 5.26226C4.82815 3.40554 8.0858 2 12 2C15.9142 2 19.1718 3.40554 19.8642 5.26226C19.9052 5.35695 19.9372 5.50969 19.9601 5.65798C19.9942 5.87853 19.9355 6.10313 19.7985 6.27935C18.9936 7.31492 17.8362 7.95596 17.3214 8.15761Z" fill="#1C274C"/>
  </symbol>

  <symbol viewBox="0 0 24 24" fill="none" xmlns="http://www.w3.org/2000/svg" id="settings">
    <path fill-rule="evenodd" clip-rule="evenodd" d="M14.2788 2.15224C13.9085 2 13.439 2 12.5 2C11.561 2 11.0915 2 10.7212 2.15224C10.2274 2.35523 9.83509 2.74458 9.63056 3.23463C9.53719 3.45834 9.50065 3.7185 9.48635 4.09799C9.46534 4.65568 9.17716 5.17189 8.69017 5.45093C8.20318 5.72996 7.60864 5.71954 7.11149 5.45876C6.77318 5.2813 6.52789 5.18262 6.28599 5.15102C5.75609 5.08178 5.22018 5.22429 4.79616 5.5472C4.47814 5.78938 4.24339 6.1929 3.7739 6.99993C3.30441 7.80697 3.06967 8.21048 3.01735 8.60491C2.94758 9.1308 3.09118 9.66266 3.41655 10.0835C3.56506 10.2756 3.77377 10.437 4.0977 10.639C4.57391 10.936 4.88032 11.4419 4.88029 12C4.88026 12.5581 4.57386 13.0639 4.0977 13.3608C3.77372 13.5629 3.56497 13.7244 3.41645 13.9165C3.09108 14.3373 2.94749 14.8691 3.01725 15.395C3.06957 15.7894 3.30432 16.193 3.7738 17C4.24329 17.807 4.47804 18.2106 4.79606 18.4527C5.22008 18.7756 5.75599 18.9181 6.28589 18.8489C6.52778 18.8173 6.77305 18.7186 7.11133 18.5412C7.60852 18.2804 8.2031 18.27 8.69012 18.549C9.17714 18.8281 9.46533 19.3443 9.48635 19.9021C9.50065 20.2815 9.53719 20.5417 9.63056 20.7654C9.83509 21.2554 10.2274 21.6448 10.7212 21.8478C11.0915 22 11.561 22 12.5 22C13.439 22 13.9085 22 14.2788 21.8478C14.7726 21.6448 15.1649 21.2554 15.3694 20.7654C15.4628 20.5417 15.4994 20.2815 15.5137 19.902C15.5347 19.3443 15.8228 18.8281 16.3098 18.549C16.7968 18.2699 17.3914 18.2804 17.8886 18.5412C18.2269 18.7186 18.4721 18.8172 18.714 18.8488C19.2439 18.9181 19.7798 18.7756 20.2038 18.4527C20.5219 18.2105 20.7566 17.807 21.2261 16.9999C21.6956 16.1929 21.9303 15.7894 21.9827 15.395C22.0524 14.8691 21.9088 14.3372 21.5835 13.9164C21.4349 13.7243 21.2262 13.5628 20.9022 13.3608C20.4261 13.0639 20.1197 12.558 20.1197 11.9999C20.1197 11.4418 20.4261 10.9361 20.9022 10.6392C21.2263 10.4371 21.435 10.2757 21.5836 10.0835C21.9089 9.66273 22.0525 9.13087 21.9828 8.60497C21.9304 8.21055 21.6957 7.80703 21.2262 7C20.7567 6.19297 20.522 5.78945 20.2039 5.54727C19.7799 5.22436 19.244 5.08185 18.7141 5.15109C18.4722 5.18269 18.2269 5.28136 17.8887 5.4588C17.3915 5.71959 16.7969 5.73002 16.3099 5.45096C15.8229 5.17191 15.5347 4.65566 15.5136 4.09794C15.4993 3.71848 15.4628 3.45833 15.3694 3.23463C15.1649 2.74458 14.7726 2.35523 14.2788 2.15224ZM12.5 15C14.1695 15 15.5228 13.6569 15.5228 12C15.5228 10.3431 14.1695 9 12.5 9C10.8305 9 9.47716 10.3431 9.47716 12C9.47716 13.6569 10.8305 15 12.5 15Z" fill="#1C274C"/>
  </symbol>

  <symbol viewBox="0 0 24 24" fill="none" xmlns="http://www.w3.org/2000/svg" id="sun">
    <path d="M17 12C17 14.7614 14.7614 17 12 17C9.23858 17 7 14.7614 7 12C7 9.23858 9.23858 7 12 7C14.7614 7 17 9.23858 17 12Z" fill="#1C274C"/>
    <path fill-rule="evenodd" clip-rule="evenodd" d="M12 1.25C12.4142 1.25 12.75 1.58579 12.75 2V4C12.75 4.41421 12.4142 4.75 12 4.75C11.5858 4.75 11.25 4.41421 11.25 4V2C11.25 1.58579 11.5858 1.25 12 1.25ZM3.66865 3.71609C3.94815 3.41039 4.42255 3.38915 4.72825 3.66865L6.95026 5.70024C7.25596 5.97974 7.2772 6.45413 6.9977 6.75983C6.7182 7.06553 6.2438 7.08677 5.9381 6.80727L3.71609 4.77569C3.41039 4.49619 3.38915 4.02179 3.66865 3.71609ZM20.3314 3.71609C20.6109 4.02179 20.5896 4.49619 20.2839 4.77569L18.0619 6.80727C17.7562 7.08677 17.2818 7.06553 17.0023 6.75983C16.7228 6.45413 16.744 5.97974 17.0497 5.70024L19.2718 3.66865C19.5775 3.38915 20.0518 3.41039 20.3314 3.71609ZM1.25 12C1.25 11.5858 1.58579 11.25 2 11.25H4C4.41421 11.25 4.75 11.5858 4.75 12C4.75 12.4142 4.41421 12.75 4 12.75H2C1.58579 12.75 1.25 12.4142 1.25 12ZM19.25 12C19.25 11.5858 19.5858 11.25 20 11.25H22C22.4142 11.25 22.75 11.5858 22.75 12C22.75 12.4142 22.4142 12.75 22 12.75H20C19.5858 12.75 19.25 12.4142 19.25 12ZM17.0255 17.0252C17.3184 16.7323 17.7933 16.7323 18.0862 17.0252L20.3082 19.2475C20.6011 19.5404 20.601 20.0153 20.3081 20.3082C20.0152 20.6011 19.5403 20.601 19.2475 20.3081L17.0255 18.0858C16.7326 17.7929 16.7326 17.3181 17.0255 17.0252ZM6.97467 17.0253C7.26756 17.3182 7.26756 17.7931 6.97467 18.086L4.75244 20.3082C4.45955 20.6011 3.98468 20.6011 3.69178 20.3082C3.39889 20.0153 3.39889 19.5404 3.69178 19.2476L5.91401 17.0253C6.2069 16.7324 6.68177 16.7324 6.97467 17.0253ZM12 19.25C12.4142 19.25 12.75 19.5858 12.75 20V22C12.75 22.4142 12.4142 22.75 12 22.75C11.5858 22.75 11.25 22.4142 11.25 22V20C11.25 19.5858 11.5858 19.25 12 19.25Z" fill="#1C274C"/>
  </symbol>

  <symbol viewBox="0 0 24 24" fill="none" xmlns="http://www.w3.org/2000/svg" id="pie-chart">
    <path d="M6.22209 4.60105C6.66665 4.304 7.13344 4.04636 7.6171 3.82976C8.98898 3.21539 9.67491 2.9082 10.5875 3.4994C11.5 4.09061 11.5 5.06041 11.5 7.00001V8.50001C11.5 10.3856 11.5 11.3284 12.0858 11.9142C12.6716 12.5 13.6144 12.5 15.5 12.5H17C18.9396 12.5 19.9094 12.5 20.5006 13.4125C21.0918 14.3251 20.7846 15.011 20.1702 16.3829C19.9536 16.8666 19.696 17.3334 19.399 17.7779C18.3551 19.3402 16.8714 20.5578 15.1355 21.2769C13.3996 21.9959 11.4895 22.184 9.64665 21.8175C7.80383 21.4509 6.11109 20.5461 4.78249 19.2175C3.45389 17.8889 2.5491 16.1962 2.18254 14.3534C1.81598 12.5105 2.00412 10.6004 2.72315 8.86451C3.44218 7.12861 4.65982 5.64492 6.22209 4.60105Z" fill="#1C274C"/>
    <path d="M21.446 7.06901C20.6342 5.00831 18.9917 3.36579 16.931 2.55398C15.3895 1.94669 14 3.34316 14 5.00002V9.00002C14 9.5523 14.4477 10 15 10H19C20.6569 10 22.0533 8.61055 21.446 7.06901Z" fill="#1C274C"/>
  </symbol>

  <symbol viewBox="0 0 24 24" fill="none" xmlns="http://www.w3.org/2000/svg" id="moon">
    <path d="M12 22C17.5228 22 22 17.5228 22 12C22 11.5373 21.3065 11.4608 21.0672 11.8568C19.9289 13.7406 17.8615 15 15.5 15C11.9101 15 9 12.0899 9 8.5C9 6.13845 10.2594 4.07105 12.1432 2.93276C12.5392 2.69347 12.4627 2 12 2C6.47715 2 2 6.47715 2 12C2 17.5228 6.47715 22 12 22Z" fill="#1C274C"/>
  </symbol>

  <symbol viewBox="0 0 24 24" fill="none" xmlns="http://www.w3.org/2000/svg" id="lock">
    <path fill-rule="evenodd" clip-rule="evenodd" d="M5.25 10.0546V8C5.25 4.27208 8.27208 1.25 12 1.25C15.7279 1.25 18.75 4.27208 18.75 8V10.0546C19.8648 10.1379 20.5907 10.348 21.1213 10.8787C22 11.7574 22 13.1716 22 16C22 18.8284 22 20.2426 21.1213 21.1213C20.2426 22 18.8284 22 16 22H8C5.17157 22 3.75736 22 2.87868 21.1213C2 20.2426 2 18.8284 2 16C2 13.1716 2 11.7574 2.87868 10.8787C3.40931 10.348 4.13525 10.1379 5.25 10.0546ZM6.75 8C6.75 5.10051 9.10051 2.75 12 2.75C14.8995 2.75 17.25 5.10051 17.25 8V10.0036C16.867 10 16.4515 10 16 10H8C7.54849 10 7.13301 10 6.75 10.0036V8Z" fill="#1C274C"/>
  </symbol>

  <symbol viewBox="0 0 24 24" fill="none" xmlns="http://www.w3.org/2000/svg" id="help">
    <path d="M19.5816 18.5209C21.0889 16.7701 22 14.4915 22 12C22 9.50853 21.0889 7.22987 19.5816 5.47906L15.3089 9.75178C15.745 10.3925 16 11.1665 16 12C16 12.8335 15.745 13.6075 15.3089 14.2482L19.5816 18.5209Z" fill="#1C274C"/>
    <path d="M18.5209 19.5816C16.7701 21.0889 14.4915 22 12 22C9.50853 22 7.22987 21.0889 5.47906 19.5816L9.75178 15.3089C10.3925 15.745 11.1665 16 12 16C12.8335 16 13.6075 15.745 14.2482 15.3089L18.5209 19.5816Z" fill="#1C274C"/>
    <path d="M4.4184 18.5209L8.69112 14.2482C8.25495 13.6075 8 12.8335 8 12C8 11.1665 8.25495 10.3925 8.69112 9.75178L4.4184 5.47906C2.91114 7.22987 2 9.50853 2 12C2 14.4915 2.91114 16.7701 4.4184 18.5209Z" fill="#1C274C"/>
    <path d="M12 8C11.1665 8 10.3925 8.25495 9.75178 8.69112L5.47906 4.4184C7.22987 2.91114 9.50853 2 12 2C14.4915 2 16.7701 2.91114 18.5209 4.4184L14.2482 8.69112C13.6075 8.25495 12.8335 8 12 8Z" fill="#1C274C"/>
  </symbol>

  <symbol viewBox="0 0 24 24" fill="none" xmlns="http://www.w3.org/2000/svg" id="bell">
    <path d="M8.35179 20.2418C9.19288 21.311 10.5142 22 12 22C13.4858 22 14.8071 21.311 15.6482 20.2418C13.2264 20.57 10.7736 20.57 8.35179 20.2418Z" fill="#1C274C"/>
    <path d="M18.7491 9V9.7041C18.7491 10.5491 18.9903 11.3752 19.4422 12.0782L20.5496 13.8012C21.5612 15.3749 20.789 17.5139 19.0296 18.0116C14.4273 19.3134 9.57274 19.3134 4.97036 18.0116C3.21105 17.5139 2.43882 15.3749 3.45036 13.8012L4.5578 12.0782C5.00972 11.3752 5.25087 10.5491 5.25087 9.7041V9C5.25087 5.13401 8.27256 2 12 2C15.7274 2 18.7491 5.13401 18.7491 9Z" fill="#1C274C"/>
  </symbol>
</svg>