<svg width="0" height="0" class="hidden">
  <symbol fill="none" xmlns="http://www.w3.org/2000/svg" viewBox="0 0 17 11" id="arrow-bottom">
    <path d="M1 1.00016L8.5 9.3335L16 1.00016" stroke="currentColor" stroke-width="2" stroke-linecap="round" stroke-linejoin="round"></path>
  </symbol>
  <symbol fill="none" xmlns="http://www.w3.org/2000/svg" viewBox="0 0 17 11" id="arrow-top">
    <path d="M1 9.33333L8.5 1L16 9.33333" stroke="currentColor" stroke-width="2" stroke-linecap="round" stroke-linejoin="round"></path>
  </symbol>
  <symbol fill="currentColor" xmlns="http://www.w3.org/2000/svg" viewBox="0 0 20 20" id="time">
    <path d="M10 0C15.523 0 20 4.477 20 10C20 15.523 15.523 20 10 20C4.477 20 0 15.523 0 10C0 4.477 4.477 0 10 0ZM10 2C7.87827 2 5.84344 2.84285 4.34315 4.34315C2.84285 5.84344 2 7.87827 2 10C2 12.1217 2.84285 14.1566 4.34315 15.6569C5.84344 17.1571 7.87827 18 10 18C12.1217 18 14.1566 17.1571 15.6569 15.6569C17.1571 14.1566 18 12.1217 18 10C18 7.87827 17.1571 5.84344 15.6569 4.34315C14.1566 2.84285 12.1217 2 10 2ZM10 4C10.2449 4.00003 10.4813 4.08996 10.6644 4.25272C10.8474 4.41547 10.9643 4.63975 10.993 4.883L11 5V9.586L13.707 12.293C13.8863 12.473 13.9905 12.7144 13.9982 12.9684C14.006 13.2223 13.9168 13.4697 13.7488 13.6603C13.5807 13.8508 13.3464 13.9703 13.0935 13.9944C12.8406 14.0185 12.588 13.9454 12.387 13.79L12.293 13.707L9.293 10.707C9.13758 10.5514 9.03776 10.349 9.009 10.131L9 10V5C9 4.73478 9.10536 4.48043 9.29289 4.29289C9.48043 4.10536 9.73478 4 10 4Z" ></path>
  </symbol>
  <symbol fill="none" stroke="currentColor" xmlns="http://www.w3.org/2000/svg" viewBox="0 0 22 22" id="date">
    <path d="M1 10.5C1 6.729 1 4.843 2.172 3.672C3.343 2.5 5.229 2.5 9 2.5H13C16.771 2.5 18.657 2.5 19.828 3.672C21 4.843 21 6.729 21 10.5V12.5C21 16.271 21 18.157 19.828 19.328C18.657 20.5 16.771 20.5 13 20.5H9C5.229 20.5 3.343 20.5 2.172 19.328C1 18.157 1 16.271 1 12.5V10.5Z" stroke="currentColor" stroke-width="2"></path>
    <path d="M6 2.5V1M16 2.5V1M1.5 7.5H20.5" stroke="currentColor" stroke-width="2" stroke-linecap="round"></path>
    <path d="M17 15.5C17 15.7652 16.8946 16.0196 16.7071 16.2071C16.5196 16.3946 16.2652 16.5 16 16.5C15.7348 16.5 15.4804 16.3946 15.2929 16.2071C15.1054 16.0196 15 15.7652 15 15.5C15 15.2348 15.1054 14.9804 15.2929 14.7929C15.4804 14.6054 15.7348 14.5 16 14.5C16.2652 14.5 16.5196 14.6054 16.7071 14.7929C16.8946 14.9804 17 15.2348 17 15.5ZM17 11.5C17 11.7652 16.8946 12.0196 16.7071 12.2071C16.5196 12.3946 16.2652 12.5 16 12.5C15.7348 12.5 15.4804 12.3946 15.2929 12.2071C15.1054 12.0196 15 11.7652 15 11.5C15 11.2348 15.1054 10.9804 15.2929 10.7929C15.4804 10.6054 15.7348 10.5 16 10.5C16.2652 10.5 16.5196 10.6054 16.7071 10.7929C16.8946 10.9804 17 11.2348 17 11.5ZM12 15.5C12 15.7652 11.8946 16.0196 11.7071 16.2071C11.5196 16.3946 11.2652 16.5 11 16.5C10.7348 16.5 10.4804 16.3946 10.2929 16.2071C10.1054 16.0196 10 15.7652 10 15.5C10 15.2348 10.1054 14.9804 10.2929 14.7929C10.4804 14.6054 10.7348 14.5 11 14.5C11.2652 14.5 11.5196 14.6054 11.7071 14.7929C11.8946 14.9804 12 15.2348 12 15.5ZM12 11.5C12 11.7652 11.8946 12.0196 11.7071 12.2071C11.5196 12.3946 11.2652 12.5 11 12.5C10.7348 12.5 10.4804 12.3946 10.2929 12.2071C10.1054 12.0196 10 11.7652 10 11.5C10 11.2348 10.1054 10.9804 10.2929 10.7929C10.4804 10.6054 10.7348 10.5 11 10.5C11.2652 10.5 11.5196 10.6054 11.7071 10.7929C11.8946 10.9804 12 11.2348 12 11.5ZM7 15.5C7 15.7652 6.89464 16.0196 6.70711 16.2071C6.51957 16.3946 6.26522 16.5 6 16.5C5.73478 16.5 5.48043 16.3946 5.29289 16.2071C5.10536 16.0196 5 15.7652 5 15.5C5 15.2348 5.10536 14.9804 5.29289 14.7929C5.48043 14.6054 5.73478 14.5 6 14.5C6.26522 14.5 6.51957 14.6054 6.70711 14.7929C6.89464 14.9804 7 15.2348 7 15.5ZM7 11.5C7 11.7652 6.89464 12.0196 6.70711 12.2071C6.51957 12.3946 6.26522 12.5 6 12.5C5.73478 12.5 5.48043 12.3946 5.29289 12.2071C5.10536 12.0196 5 11.7652 5 11.5C5 11.2348 5.10536 10.9804 5.29289 10.7929C5.48043 10.6054 5.73478 10.5 6 10.5C6.26522 10.5 6.51957 10.6054 6.70711 10.7929C6.89464 10.9804 7 11.2348 7 11.5Z"></path>
  </symbol>
  <symbol fill="currentColor" xmlns="http://www.w3.org/2000/svg" viewBox="0 0 61 61" id="arrow-right">
    <path d="M20.1796 6.23734C19.4649 6.95229 19.0634 7.92184 19.0634 8.93278C19.0634 9.94372 19.4649 10.9133 20.1796 11.6282L39.0515 30.5001L20.1796 49.372C19.4851 50.091 19.1008 51.0541 19.1095 52.0537C19.1182 53.0533 19.5192 54.0095 20.226 54.7164C20.9329 55.4233 21.8891 55.8242 22.8888 55.8329C23.8884 55.8416 24.8514 55.4573 25.5705 54.7628L47.1378 33.1955C47.8525 32.4806 48.254 31.511 48.254 30.5001C48.254 29.4892 47.8525 28.5196 47.1378 27.8047L25.5705 6.23734C24.8555 5.52261 23.886 5.12109 22.875 5.12109C21.8641 5.12109 20.8946 5.52261 20.1796 6.23734Z"></path>
  </symbol>
  <symbol fill="currentColor" xmlns="http://www.w3.org/2000/svg" viewBox="0 0 61 61" id="arrow-left">
    <path d="M40.8204 6.23734C41.5351 6.95229 41.9367 7.92184 41.9367 8.93278C41.9367 9.94372 41.5351 10.9133 40.8204 11.6282L21.9485 30.5001L40.8204 49.372C41.5149 50.091 41.8992 51.0541 41.8905 52.0537C41.8818 53.0533 41.4808 54.0095 40.774 54.7164C40.0671 55.4233 39.1109 55.8242 38.1112 55.8329C37.1116 55.8416 36.1486 55.4573 35.4295 54.7628L13.8622 33.1955C13.1475 32.4806 12.746 31.511 12.746 30.5001C12.746 29.4892 13.1475 28.5196 13.8622 27.8047L35.4295 6.23734C36.1445 5.52261 37.114 5.12109 38.125 5.12109C39.1359 5.12109 40.1055 5.52261 40.8204 6.23734Z"></path>
  </symbol>
  <symbol fill="currentColor" xmlns="http://www.w3.org/2000/svg" viewBox="0 0 24 24" id="up-arrow">
    <path d="M2.99996 19.0001H21C21.1822 18.9995 21.3608 18.9493 21.5166 18.8547C21.6724 18.7602 21.7995 18.6249 21.8842 18.4636C21.9688 18.3022 22.0078 18.1207 21.9971 17.9388C21.9863 17.7569 21.9261 17.5814 21.823 17.4311L12.823 4.43111C12.45 3.89211 11.552 3.89211 11.178 4.43111L2.17796 17.4311C2.07379 17.581 2.0127 17.7567 2.00133 17.9389C1.98996 18.1211 2.02875 18.303 2.11348 18.4647C2.19821 18.6264 2.32564 18.7619 2.48193 18.8562C2.63822 18.9506 2.81738 19.0004 2.99996 19.0001Z"></path>
  </symbol>
  <symbol fill="currentColor" xmlns="http://www.w3.org/2000/svg" viewBox="0 0 24 24" id="down-arrow">
    <path d="M11.1781 19.569C11.2698 19.7022 11.3926 19.8112 11.5357 19.8864C11.6789 19.9617 11.8383 20.001 12.0001 20.001C12.1618 20.001 12.3212 19.9617 12.4644 19.8864C12.6076 19.8112 12.7303 19.7022 12.8221 19.569L21.8221 6.569C21.9262 6.41906 21.9873 6.24343 21.9987 6.06121C22.0101 5.87898 21.9713 5.69712 21.8865 5.53539C21.8018 5.37366 21.6744 5.23825 21.5181 5.14386C21.3618 5.04947 21.1826 4.99971 21.0001 5H3.00006C2.8179 5.00075 2.6394 5.05115 2.48374 5.14576C2.32808 5.24038 2.20116 5.37564 2.11663 5.53699C2.03209 5.69835 1.99314 5.8797 2.00397 6.06153C2.01479 6.24337 2.07498 6.41881 2.17806 6.569L11.1781 19.569Z"></path>
  </symbol>
  <symbol fill="currentColor" xmlns="http://www.w3.org/2000/svg" viewBox="0 0 24 24" id="delete">
    <path d="M7 21C6.45 21 5.97933 20.8043 5.588 20.413C5.19667 20.0217 5.00067 19.5507 5 19V6H4V4H9V3H15V4H20V6H19V19C19 19.55 18.8043 20.021 18.413 20.413C18.0217 20.805 17.5507 21.0007 17 21H7ZM9 17H11V8H9V17ZM13 17H15V8H13V17Z"></path>
  </symbol>
  <symbol fill="currentColor" xmlns="http://www.w3.org/2000/svg" viewBox="0 0 24 24" id="calendar">
    <path d="M7.74998 2.5C7.74998 2.30109 7.67096 2.11032 7.53031 1.96967C7.38966 1.82902 7.19889 1.75 6.99998 1.75C6.80107 1.75 6.6103 1.82902 6.46965 1.96967C6.329 2.11032 6.24998 2.30109 6.24998 2.5V4.08C4.80998 4.195 3.86598 4.477 3.17198 5.172C2.47698 5.866 2.19498 6.811 2.07898 8.25H21.921C21.805 6.81 21.523 5.866 20.828 5.172C20.134 4.477 19.189 4.195 17.75 4.079V2.5C17.75 2.30109 17.671 2.11032 17.5303 1.96967C17.3897 1.82902 17.1989 1.75 17 1.75C16.8011 1.75 16.6103 1.82902 16.4696 1.96967C16.329 2.11032 16.25 2.30109 16.25 2.5V4.013C15.585 4 14.839 4 14 4H9.99998C9.16098 4 8.41498 4 7.74998 4.013V2.5Z"></path>
    <path fill-rule="evenodd" clip-rule="evenodd" d="M2 12C2 11.161 2 10.415 2.013 9.75H21.987C22 10.415 22 11.161 22 12V14C22 17.771 22 19.657 20.828 20.828C19.657 22 17.771 22 14 22H10C6.229 22 4.343 22 3.172 20.828C2 19.657 2 17.771 2 14V12ZM17 14C17.2652 14 17.5196 13.8946 17.7071 13.7071C17.8946 13.5196 18 13.2652 18 13C18 12.7348 17.8946 12.4804 17.7071 12.2929C17.5196 12.1054 17.2652 12 17 12C16.7348 12 16.4804 12.1054 16.2929 12.2929C16.1054 12.4804 16 12.7348 16 13C16 13.2652 16.1054 13.5196 16.2929 13.7071C16.4804 13.8946 16.7348 14 17 14ZM17 18C17.2652 18 17.5196 17.8946 17.7071 17.7071C17.8946 17.5196 18 17.2652 18 17C18 16.7348 17.8946 16.4804 17.7071 16.2929C17.5196 16.1054 17.2652 16 17 16C16.7348 16 16.4804 16.1054 16.2929 16.2929C16.1054 16.4804 16 16.7348 16 17C16 17.2652 16.1054 17.5196 16.2929 17.7071C16.4804 17.8946 16.7348 18 17 18ZM13 13C13 13.2652 12.8946 13.5196 12.7071 13.7071C12.5196 13.8946 12.2652 14 12 14C11.7348 14 11.4804 13.8946 11.2929 13.7071C11.1054 13.5196 11 13.2652 11 13C11 12.7348 11.1054 12.4804 11.2929 12.2929C11.4804 12.1054 11.7348 12 12 12C12.2652 12 12.5196 12.1054 12.7071 12.2929C12.8946 12.4804 13 12.7348 13 13ZM13 17C13 17.2652 12.8946 17.5196 12.7071 17.7071C12.5196 17.8946 12.2652 18 12 18C11.7348 18 11.4804 17.8946 11.2929 17.7071C11.1054 17.5196 11 17.2652 11 17C11 16.7348 11.1054 16.4804 11.2929 16.2929C11.4804 16.1054 11.7348 16 12 16C12.2652 16 12.5196 16.1054 12.7071 16.2929C12.8946 16.4804 13 16.7348 13 17ZM7 14C7.26522 14 7.51957 13.8946 7.70711 13.7071C7.89464 13.5196 8 13.2652 8 13C8 12.7348 7.89464 12.4804 7.70711 12.2929C7.51957 12.1054 7.26522 12 7 12C6.73478 12 6.48043 12.1054 6.29289 12.2929C6.10536 12.4804 6 12.7348 6 13C6 13.2652 6.10536 13.5196 6.29289 13.7071C6.48043 13.8946 6.73478 14 7 14ZM7 18C7.26522 18 7.51957 17.8946 7.70711 17.7071C7.89464 17.5196 8 17.2652 8 17C8 16.7348 7.89464 16.4804 7.70711 16.2929C7.51957 16.1054 7.26522 16 7 16C6.73478 16 6.48043 16.1054 6.29289 16.2929C6.10536 16.4804 6 16.7348 6 17C6 17.2652 6.10536 17.5196 6.29289 17.7071C6.48043 17.8946 6.73478 18 7 18Z"></path>
  </symbol>
  <symbol fill="currentColor" xmlns="http://www.w3.org/2000/svg" viewBox="0 0 20 20" id="dashboard">
    <path d="M8.003 4.07008C8.55 3.99208 9 4.44808 9 5.00008V11.0001H15C15.552 11.0001 16.008 11.4501 15.93 11.9971C15.6738 13.7458 14.7657 15.3329 13.388 16.44C12.0104 17.5471 10.265 18.0923 8.50211 17.9661C6.73923 17.8399 5.08928 17.0517 3.88331 15.7597C2.67734 14.4677 2.00458 12.7675 2 11.0001C2.00009 9.31618 2.60701 7.68871 3.70953 6.41593C4.81205 5.14315 6.33633 4.31033 8.003 4.07008ZM17.062 10.0001C17.56 10.0001 17.989 9.63408 17.999 9.13608L18 9.00008C18 8.06935 17.8145 7.14796 17.4542 6.28981C17.0938 5.43166 16.566 4.65398 15.9015 4.00227C15.2371 3.35056 14.4493 2.8379 13.5843 2.49428C12.7194 2.15067 11.7946 1.98299 10.864 2.00108C10.366 2.01108 10 2.44108 10 2.93808V9.00008C10 9.26529 10.1054 9.51965 10.2929 9.70718C10.4804 9.89472 10.7348 10.0001 11 10.0001H17.062Z"></path>
  </symbol>
  <symbol fill="currentColor" xmlns="http://www.w3.org/2000/svg" viewBox="0 0 24 24" id="logout">
    <path d="M12 2.5C12.3978 2.5 12.7794 2.65804 13.0607 2.93934C13.342 3.22064 13.5 3.60218 13.5 4C13.5 4.39782 13.342 4.77936 13.0607 5.06066C12.7794 5.34196 12.3978 5.5 12 5.5H7C6.86739 5.5 6.74021 5.55268 6.64645 5.64645C6.55268 5.74021 6.5 5.86739 6.5 6V18C6.5 18.1326 6.55268 18.2598 6.64645 18.3536C6.74021 18.4473 6.86739 18.5 7 18.5H11.5C11.8978 18.5 12.2794 18.658 12.5607 18.9393C12.842 19.2206 13 19.6022 13 20C13 20.3978 12.842 20.7794 12.5607 21.0607C12.2794 21.342 11.8978 21.5 11.5 21.5H7C6.07174 21.5 5.1815 21.1313 4.52513 20.4749C3.86875 19.8185 3.5 18.9283 3.5 18V6C3.5 5.07174 3.86875 4.1815 4.52513 3.52513C5.1815 2.86875 6.07174 2.5 7 2.5H12ZM18.06 8.11L20.889 10.94C21.1699 11.2213 21.3277 11.6025 21.3277 12C21.3277 12.3975 21.1699 12.7787 20.889 13.06L18.061 15.89C17.7796 16.1714 17.398 16.3295 17 16.3295C16.602 16.3295 16.2204 16.1714 15.939 15.89C15.6576 15.6086 15.4995 15.227 15.4995 14.829C15.4995 14.431 15.6576 14.0494 15.939 13.768L16.207 13.5H12C11.6022 13.5 11.2206 13.342 10.9393 13.0607C10.658 12.7794 10.5 12.3978 10.5 12C10.5 11.6022 10.658 11.2206 10.9393 10.9393C11.2206 10.658 11.6022 10.5 12 10.5H16.207L15.939 10.232C15.7997 10.0927 15.6893 9.92727 15.6139 9.74525C15.5386 9.56323 15.4998 9.36815 15.4999 9.17115C15.4999 8.97415 15.5388 8.77909 15.6142 8.5971C15.6896 8.41511 15.8002 8.24977 15.9395 8.1105C16.0788 7.97123 16.2442 7.86077 16.4263 7.78543C16.6083 7.71008 16.8034 7.67133 17.0004 7.67137C17.1974 7.67142 17.3924 7.71027 17.5744 7.7857C17.7564 7.86113 17.9217 7.97167 18.061 8.111L18.06 8.11Z"></path>
  </symbol>
  <symbol fill="currentColor" xmlns="http://www.w3.org/2000/svg" viewBox="0 0 24 24" id="settings">
    <path d="M9.24995 22L8.84995 18.8C8.63329 18.7167 8.42928 18.6167 8.23795 18.5C8.04662 18.3833 7.85895 18.2583 7.67495 18.125L4.69995 19.375L1.94995 14.625L4.52495 12.675C4.50828 12.5583 4.49995 12.446 4.49995 12.338V11.663C4.49995 11.5543 4.50828 11.4417 4.52495 11.325L1.94995 9.375L4.69995 4.625L7.67495 5.875C7.85828 5.74167 8.04995 5.61667 8.24995 5.5C8.44995 5.38333 8.64995 5.28333 8.84995 5.2L9.24995 2H14.75L15.15 5.2C15.3666 5.28333 15.571 5.38333 15.763 5.5C15.955 5.61667 16.1423 5.74167 16.325 5.875L19.2999 4.625L22.0499 9.375L19.475 11.325C19.4916 11.4417 19.5 11.5543 19.5 11.663V12.337C19.5 12.4457 19.4833 12.5583 19.45 12.675L22.025 14.625L19.275 19.375L16.325 18.125C16.1416 18.2583 15.95 18.3833 15.75 18.5C15.55 18.6167 15.35 18.7167 15.15 18.8L14.75 22H9.24995ZM12.05 15.5C13.0166 15.5 13.8416 15.1583 14.525 14.475C15.2083 13.7917 15.55 12.9667 15.55 12C15.55 11.0333 15.2083 10.2083 14.525 9.525C13.8416 8.84167 13.0166 8.5 12.05 8.5C11.0666 8.5 10.2373 8.84167 9.56195 9.525C8.88662 10.2083 8.54928 11.0333 8.54995 12C8.54995 12.9667 8.88762 13.7917 9.56295 14.475C10.2383 15.1583 11.0673 15.5 12.05 15.5Z"></path>
  </symbol>
  <symbol fill="currentColor" xmlns="http://www.w3.org/2000/svg" viewBox="0 0 24 24" id="manager">
    <path d="M12 3C7.58 3 4 4.79 4 7C4 9.21 7.58 11 12 11C16.42 11 20 9.21 20 7C20 4.79 16.42 3 12 3ZM4 9V12C4 14.21 7.58 16 12 16C16.42 16 20 14.21 20 12V9C20 11.21 16.42 13 12 13C7.58 13 4 11.21 4 9ZM4 14V17C4 19.21 7.58 21 12 21C16.42 21 20 19.21 20 17V14C20 16.21 16.42 18 12 18C7.58 18 4 16.21 4 14Z"></path>
  </symbol>
  <symbol xmlns="http://www.w3.org/2000/svg" viewBox="0 0 24 24" id="darkmode">
    <path d="M12 24C18.6276 24 24 18.6276 24 12C24 11.4444 23.1672 11.352 22.8804 11.8284C22.2687 12.8416 21.4344 13.7023 20.4408 14.3454C19.4472 14.9884 18.3203 15.3969 17.1454 15.5399C15.9705 15.6829 14.7785 15.5566 13.6597 15.1707C12.5408 14.7848 11.5244 14.1494 10.6875 13.3125C9.85065 12.4756 9.21518 11.4592 8.82927 10.3403C8.44335 9.22148 8.31712 8.02947 8.46012 6.8546C8.60312 5.67973 9.0116 4.5528 9.65464 3.55918C10.2977 2.56556 11.1584 1.73131 12.1716 1.1196C12.648 0.8316 12.5556 0 12 0C5.3724 0 0 5.3724 0 12C0 18.6276 5.3724 24 12 24Z"></path>
  </symbol>
  <symbol fill="none" xmlns="http://www.w3.org/2000/svg" viewBox="0 0 14 18" id="decreased">
    <path d="M6.70694 16.0001L7.41394 16.7071L6.70694 17.4141L5.99994 16.7071L6.70694 16.0001ZM5.70694 1.00006C5.70694 0.734846 5.8123 0.480492 5.99983 0.292955C6.18737 0.105419 6.44172 6.29425e-05 6.70694 6.29425e-05C6.97216 6.29425e-05 7.22651 0.105419 7.41405 0.292955C7.60158 0.480492 7.70694 0.734846 7.70694 1.00006H5.70694ZM13.4139 10.7071L7.41394 16.7071L5.99994 15.2931L11.9999 9.29306L13.4139 10.7071ZM5.99994 16.7071L-6.00815e-05 10.7071L1.41394 9.29306L7.41394 15.2931L5.99994 16.7071ZM5.70694 16.0001V1.00006H7.70694V16.0001H5.70694Z" fill="#DC2626"></path>
  </symbol>
  <symbol fill="none" xmlns="http://www.w3.org/2000/svg" viewBox="0 0 14 18" id="increased">
    <path d="M6.707 1.414L6 0.707L6.707 0L7.414 0.707L6.707 1.414ZM7.707 16.414C7.707 16.6792 7.60164 16.9336 7.41411 17.1211C7.22657 17.3086 6.97222 17.414 6.707 17.414C6.44178 17.414 6.18743 17.3086 5.99989 17.1211C5.81236 16.9336 5.707 16.6792 5.707 16.414H7.707ZM0 6.707L6 0.707L7.414 2.121L1.414 8.121L0 6.707ZM7.414 0.707L13.414 6.707L12 8.121L6 2.121L7.414 0.707ZM7.707 1.414V16.414H5.707V1.414H7.707Z" fill="#16A34A"></path>
  </symbol>
  <symbol fill="currentColor" xmlns="http://www.w3.org/2000/svg" viewBox="0 0 24 24" id="bell">
    <path d="M21 19V20H3V19L5 17V11C5 7.9 7.03 5.17 10 4.29V4C10 3.46957 10.2107 2.96086 10.5858 2.58579C10.9609 2.21071 11.4696 2 12 2C12.5304 2 13.0391 2.21071 13.4142 2.58579C13.7893 2.96086 14 3.46957 14 4V4.29C16.97 5.17 19 7.9 19 11V17L21 19ZM14 21C14 21.5304 13.7893 22.0391 13.4142 22.4142C13.0391 22.7893 12.5304 23 12 23C11.4696 23 10.9609 22.7893 10.5858 22.4142C10.2107 22.0391 10 21.5304 10 21"></path>
  </symbol>
  <symbol fill="none" xmlns="http://www.w3.org/2000/svg" viewBox="0 0 34 24" id="sidebar">
    <path d="M0 1.56522C0 1.1501 0.164906 0.751977 0.458441 0.458441C0.751977 0.164906 1.1501 0 1.56522 0H23.4783C23.8934 0 24.2915 0.164906 24.585 0.458441C24.8786 0.751977 25.0435 1.1501 25.0435 1.56522C25.0435 1.98034 24.8786 2.37846 24.585 2.67199C24.2915 2.96553 23.8934 3.13043 23.4783 3.13043H1.56522C1.1501 3.13043 0.751977 2.96553 0.458441 2.67199C0.164906 2.37846 0 1.98034 0 1.56522ZM0 22.4348C0 22.0197 0.164906 21.6215 0.458441 21.328C0.751977 21.0345 1.1501 20.8696 1.56522 20.8696H21.3913C21.8064 20.8696 22.2045 21.0345 22.4981 21.328C22.7916 21.6215 22.9565 22.0197 22.9565 22.4348C22.9565 22.8499 22.7916 23.248 22.4981 23.5416C22.2045 23.8351 21.8064 24 21.3913 24H1.56522C1.1501 24 0.751977 23.8351 0.458441 23.5416C0.164906 23.248 0 22.8499 0 22.4348ZM1.56522 10.4348C1.1501 10.4348 0.751977 10.5997 0.458441 10.8932C0.164906 11.1868 0 11.5849 0 12C0 12.4151 0.164906 12.8132 0.458441 13.1068C0.751977 13.4003 1.1501 13.5652 1.56522 13.5652H31.8261C32.2412 13.5652 32.6393 13.4003 32.9329 13.1068C33.2264 12.8132 33.3913 12.4151 33.3913 12C33.3913 11.5849 33.2264 11.1868 32.9329 10.8932C32.6393 10.5997 32.2412 10.4348 31.8261 10.4348H1.56522Z" fill="#629196"></path>
  </symbol>
  <symbol fill="currentColor" xmlns="http://www.w3.org/2000/svg" viewBox="0 0 24 24" id="search">
    <path d="M23.6322 21.591L18.1915 16.1503C19.5014 14.4065 20.2085 12.284 20.2061 10.103C20.2061 4.53226 15.6738 0 10.103 0C4.53226 0 0 4.53226 0 10.103C0 15.6738 4.53226 20.2061 10.103 20.2061C12.284 20.2085 14.4065 19.5014 16.1503 18.1915L21.591 23.6322C21.8664 23.8783 22.2256 24.0098 22.5948 23.9994C22.9641 23.9891 23.3154 23.8378 23.5766 23.5766C23.8378 23.3154 23.9891 22.9641 23.9994 22.5948C24.0098 22.2256 23.8783 21.8664 23.6322 21.591ZM2.88658 10.103C2.88658 8.67576 3.30982 7.28053 4.10277 6.09379C4.89573 4.90705 6.02279 3.9821 7.34142 3.4359C8.66006 2.88971 10.111 2.7468 11.5109 3.02525C12.9108 3.30369 14.1966 3.99099 15.2058 5.00023C16.2151 6.00947 16.9024 7.29532 17.1808 8.69518C17.4593 10.095 17.3164 11.546 16.7702 12.8647C16.224 14.1833 15.299 15.3103 14.1123 16.1033C12.9255 16.8963 11.5303 17.3195 10.103 17.3195C8.18982 17.3172 6.35562 16.5562 5.00277 15.2033C3.64992 13.8505 2.88888 12.0163 2.88658 10.103Z"></path>
  </symbol>
  <symbol fill="none" xmlns="http://www.w3.org/2000/svg" viewBox="0 0 24 24" id="support">
    <path d="M12 24C10.34 24 8.78 23.6848 7.32 23.0544C5.86 22.424 4.59 21.5692 3.51 20.49C2.43 19.41 1.5752 18.14 0.9456 16.68C0.316 15.22 0.0008 13.66 0 12C0 10.34 0.3152 8.78 0.9456 7.32C1.576 5.86 2.4308 4.59 3.51 3.51C4.59 2.43 5.86 1.5752 7.32 0.9456C8.78 0.316 10.34 0.0008 12 0C13.66 0 15.22 0.3152 16.68 0.9456C18.14 1.576 19.41 2.4308 20.49 3.51C21.57 4.59 22.4252 5.86 23.0556 7.32C23.686 8.78 24.0008 10.34 24 12C24 13.66 23.6848 15.22 23.0544 16.68C22.424 18.14 21.5692 19.41 20.49 20.49C19.41 21.57 18.14 22.4252 16.68 23.0556C15.22 23.686 13.66 24.0008 12 24ZM8.52 20.94L9.96 17.64C9.12 17.34 8.3952 16.8752 7.7856 16.2456C7.176 15.616 6.7008 14.8808 6.36 14.04L3.06 15.42C3.52 16.7 4.23 17.82 5.19 18.78C6.15 19.74 7.26 20.46 8.52 20.94ZM6.36 9.96C6.7 9.12 7.1752 8.3852 7.7856 7.7556C8.396 7.126 9.1208 6.6608 9.96 6.36L8.58 3.06C7.3 3.54 6.18 4.26 5.22 5.22C4.26 6.18 3.54 7.3 3.06 8.58L6.36 9.96ZM12 15.6C13 15.6 13.85 15.25 14.55 14.55C15.25 13.85 15.6 13 15.6 12C15.6 11 15.25 10.15 14.55 9.45C13.85 8.75 13 8.4 12 8.4C11 8.4 10.15 8.75 9.45 9.45C8.75 10.15 8.4 11 8.4 12C8.4 13 8.75 13.85 9.45 14.55C10.15 15.25 11 15.6 12 15.6ZM15.48 20.94C16.74 20.46 17.8452 19.7452 18.7956 18.7956C19.746 17.846 20.4608 16.7408 20.94 15.48L17.64 14.04C17.34 14.88 16.88 15.6052 16.26 16.2156C15.64 16.826 14.92 17.3008 14.1 17.64L15.48 20.94ZM17.64 9.9L20.94 8.52C20.46 7.26 19.7452 6.1552 18.7956 5.2056C17.846 4.256 16.7408 3.5408 15.48 3.06L14.1 6.42C14.92 6.72 15.63 7.1752 16.23 7.7856C16.83 8.396 17.3 9.1008 17.64 9.9Z" fill="#649297"></path>
  </symbol>
  <symbol fill="none" xmlns="http://www.w3.org/2000/svg" viewBox="0 0 19 21" id="repository">
    <path d="M5.02399 1.30982C5.77495 1.56421 6.48936 1.91587 7.14899 2.35582C8.08057 2.11773 9.03846 1.99812 9.99998 1.99982C10.993 1.99982 11.951 2.12382 12.849 2.35482C13.5084 1.91529 14.2224 1.56398 14.973 1.30982C15.67 1.07282 16.663 0.688818 17.253 1.34182C17.653 1.78582 17.753 2.52982 17.824 3.09782C17.904 3.73182 17.923 4.55782 17.713 5.37782C18.516 6.41482 19 7.65182 19 8.99982C19 11.0418 17.894 12.8148 16.257 14.0428C15.4692 14.6263 14.5954 15.0838 13.667 15.3988C13.881 15.8888 14 16.4308 14 16.9998V19.9998C14 20.265 13.8946 20.5194 13.7071 20.7069C13.5196 20.8945 13.2652 20.9998 13 20.9998H6.99999C6.73477 20.9998 6.48041 20.8945 6.29288 20.7069C6.10534 20.5194 5.99999 20.265 5.99999 19.9998V19.0088C5.04499 19.1258 4.24399 19.0218 3.56299 18.7328C2.85099 18.4308 2.35499 17.9628 1.98199 17.5148C1.62799 17.0908 1.24199 16.1348 0.683985 15.9488C0.559361 15.9073 0.44413 15.8417 0.344873 15.7557C0.245615 15.6696 0.164275 15.5649 0.105495 15.4474C-0.0132154 15.2102 -0.0328232 14.9355 0.0509852 14.6838C0.134794 14.4321 0.315153 14.224 0.552386 14.1053C0.78962 13.9866 1.06429 13.967 1.31599 14.0508C1.98199 14.2728 2.41599 14.7528 2.71299 15.1388C3.19299 15.7588 3.58299 16.5688 4.34299 16.8918C4.65599 17.0248 5.11499 17.1118 5.83299 17.0138L5.99999 16.9798C6.00189 16.4356 6.11522 15.8976 6.33299 15.3988C5.40457 15.0838 4.5308 14.6264 3.74299 14.0428C2.10599 12.8148 0.999985 11.0428 0.999985 8.99982C0.999985 7.65382 1.48299 6.41782 2.28399 5.38182C2.07399 4.56182 2.09199 3.73382 2.17199 3.09882L2.17699 3.06082C2.24999 2.47882 2.33499 1.79382 2.74299 1.34182C3.33299 0.688818 4.32698 1.07382 5.02298 1.31082L5.02399 1.30982Z" fill="#649297"></path>
  </symbol>
  <symbol fill="none" xmlns="http://www.w3.org/2000/svg" viewBox="0 0 24 24" id="home">
    <path d="M24 22.7189C24 23.0587 23.8595 23.3845 23.6095 23.6248C23.3594 23.865 23.0203 24 22.6667 24H1.33333C0.979712 24 0.640573 23.865 0.390525 23.6248C0.140476 23.3845 3.20947e-07 23.0587 3.20947e-07 22.7189V9.25438C-0.000140645 9.05915 0.0461562 8.86648 0.135355 8.69107C0.224553 8.51566 0.354294 8.36216 0.514667 8.2423L11.1813 0.269923C11.4154 0.0949811 11.7035 0 12 0C12.2965 0 12.5846 0.0949811 12.8187 0.269923L23.4853 8.2423C23.6457 8.36216 23.7754 8.51566 23.8646 8.69107C23.9538 8.86648 24.0001 9.05915 24 9.25438V22.7189ZM21.3333 21.4378V9.87956L12 2.90517L2.66667 9.87956V21.4378H21.3333Z" fill="#629196"></path>
  </symbol>
  <symbol fill="none" xmlns="http://www.w3.org/2000/svg" viewBox="0 0 20 20" id="menu">
    <path d="M2 10C2 10.2652 2.10536 10.5196 2.29289 10.7071C2.48043 10.8946 2.73478 11 3 11C3.26522 11 3.51957 10.8946 3.70711 10.7071C3.89464 10.5196 4 10.2652 4 10C4 9.73478 3.89464 9.48043 3.70711 9.29289C3.51957 9.10536 3.26522 9 3 9C2.73478 9 2.48043 9.10536 2.29289 9.29289C2.10536 9.48043 2 9.73478 2 10ZM9 10C9 10.2652 9.10536 10.5196 9.29289 10.7071C9.48043 10.8946 9.73478 11 10 11C10.2652 11 10.5196 10.8946 10.7071 10.7071C10.8946 10.5196 11 10.2652 11 10C11 9.73478 10.8946 9.48043 10.7071 9.29289C10.5196 9.10536 10.2652 9 10 9C9.73478 9 9.48043 9.10536 9.29289 9.29289C9.10536 9.48043 9 9.73478 9 10ZM16 10C16 10.2652 16.1054 10.5196 16.2929 10.7071C16.4804 10.8946 16.7348 11 17 11C17.2652 11 17.5196 10.8946 17.7071 10.7071C17.8946 10.5196 18 10.2652 18 10C18 9.73478 17.8946 9.48043 17.7071 9.29289C17.5196 9.10536 17.2652 9 17 9C16.7348 9 16.4804 9.10536 16.2929 9.29289C16.1054 9.48043 16 9.73478 16 10Z" stroke="#014E56" stroke-width="2" stroke-linecap="round" stroke-linejoin="round"></path>
  </symbol>
  <symbol fill="none" xmlns="http://www.w3.org/2000/svg" viewBox="0 0 30 16" id="hide">
    <path d="M15 4.8C13.915 4.8 12.8745 5.13714 12.1073 5.73726C11.3401 6.33737 10.9091 7.15131 10.9091 8C10.9091 8.84869 11.3401 9.66263 12.1073 10.2627C12.8745 10.8629 13.915 11.2 15 11.2C16.085 11.2 17.1255 10.8629 17.8927 10.2627C18.6599 9.66263 19.0909 8.84869 19.0909 8C19.0909 7.15131 18.6599 6.33737 17.8927 5.73726C17.1255 5.13714 16.085 4.8 15 4.8ZM15 13.3333C13.1917 13.3333 11.4575 12.7714 10.1788 11.7712C8.90016 10.771 8.18182 9.41449 8.18182 8C8.18182 6.58551 8.90016 5.22896 10.1788 4.22876C11.4575 3.22857 13.1917 2.66667 15 2.66667C16.8083 2.66667 18.5425 3.22857 19.8212 4.22876C21.0998 5.22896 21.8182 6.58551 21.8182 8C21.8182 9.41449 21.0998 10.771 19.8212 11.7712C18.5425 12.7714 16.8083 13.3333 15 13.3333ZM15 0C8.18182 0 2.35909 3.31733 0 8C2.35909 12.6827 8.18182 16 15 16C21.8182 16 27.6409 12.6827 30 8C27.6409 3.31733 21.8182 0 15 0Z" fill="#629196"></path>
  </symbol>
  <symbol fill="currentColor" xmlns="http://www.w3.org/2000/svg" viewBox="0 0 42 42" id="facebook">
    <g clip-path="url(#clip0_403_400)">
      <path d="M41.4 21C41.4 9.73344 32.2665 0.599976 21 0.599976C9.73344 0.599976 0.599976 9.73344 0.599976 21C0.599976 31.1821 8.06 39.6218 17.8125 41.1521V26.8968H12.6328V21H17.8125V16.5056C17.8125 11.3928 20.8581 8.56872 25.5179 8.56872C27.7498 8.56872 30.0844 8.96716 30.0844 8.96716V13.9875H27.512C24.9778 13.9875 24.1875 15.56 24.1875 17.1734V21H29.8453L28.9408 26.8968H24.1875V41.1521C33.9399 39.6218 41.4 31.1823 41.4 21Z" fill="#1877F2"></path>
      <path d="M28.9408 26.8968L29.8453 21H24.1875V17.1734C24.1875 15.5599 24.9778 13.9875 27.512 13.9875H30.0843V8.96716C30.0843 8.96716 27.7498 8.56873 25.5178 8.56873C20.8581 8.56873 17.8125 11.3929 17.8125 16.5056V21H12.6328V26.8968H17.8125V41.1521C18.8669 41.3174 19.9326 41.4003 21 41.4C22.0673 41.4003 23.133 41.3174 24.1875 41.1521V26.8968H28.9408Z" fill="#F7F7F7"></path>
    </g>
    <defs>
      <clipPath id="clip0_403_400">
        <rect x="0.599976" y="0.599976" width="40.8" height="40.8" rx="20.4" fill="white"></rect>
      </clipPath>
    </defs>
  </symbol>
  <symbol fill="none" xmlns="http://www.w3.org/2000/svg" viewBox="0 0 32 26" id="email">
    <path d="M7.66667 7.85714L13.9167 13C14.5079 13.4869 15.2426 13.7521 16 13.7521C16.7574 13.7521 17.4921 13.4869 18.0833 13L24.3333 7.85714M31 21.5714V4.42857C31 3.51926 30.6488 2.64719 30.0237 2.00421C29.3986 1.36122 28.5507 1 27.6667 1H4.33333C3.44928 1 2.60143 1.36122 1.97631 2.00421C1.35119 2.64719 1 3.51926 1 4.42857V21.5714C1 22.4807 1.35119 23.3528 1.97631 23.9958C2.60143 24.6388 3.44928 25 4.33333 25H27.6667C28.5507 25 29.3986 24.6388 30.0237 23.9958C30.6488 23.3528 31 22.4807 31 21.5714Z" stroke="#619196" stroke-width="2" stroke-linecap="round" stroke-linejoin="round"></path>
  </symbol>

  <symbol fill="none" xmlns="http://www.w3.org/2000/svg" viewBox="0 0 30 16" id="hide">
    <path d="M15 4.8C13.915 4.8 12.8745 5.13714 12.1073 5.73726C11.3401 6.33737 10.9091 7.15131 10.9091 8C10.9091 8.84869 11.3401 9.66263 12.1073 10.2627C12.8745 10.8629 13.915 11.2 15 11.2C16.085 11.2 17.1255 10.8629 17.8927 10.2627C18.6599 9.66263 19.0909 8.84869 19.0909 8C19.0909 7.15131 18.6599 6.33737 17.8927 5.73726C17.1255 5.13714 16.085 4.8 15 4.8ZM15 13.3333C13.1917 13.3333 11.4575 12.7714 10.1788 11.7712C8.90016 10.771 8.18182 9.41449 8.18182 8C8.18182 6.58551 8.90016 5.22896 10.1788 4.22876C11.4575 3.22857 13.1917 2.66667 15 2.66667C16.8083 2.66667 18.5425 3.22857 19.8212 4.22876C21.0998 5.22896 21.8182 6.58551 21.8182 8C21.8182 9.41449 21.0998 10.771 19.8212 11.7712C18.5425 12.7714 16.8083 13.3333 15 13.3333ZM15 0C8.18182 0 2.35909 3.31733 0 8C2.35909 12.6827 8.18182 16 15 16C21.8182 16 27.6409 12.6827 30 8C27.6409 3.31733 21.8182 0 15 0Z" fill="#629196"></path>
  </symbol>

  <symbol fill="none" xmlns="http://www.w3.org/2000/svg" viewBox="0 0 24 28" id="name">
    <path d="M19 7C19 8.85651 18.2625 10.637 16.9497 11.9497C15.637 13.2625 13.8565 14 12 14C10.1435 14 8.36301 13.2625 7.05025 11.9497C5.7375 10.637 5 8.85651 5 7C5 5.14348 5.7375 3.36301 7.05025 2.05025C8.36301 0.737498 10.1435 0 12 0C13.8565 0 15.637 0.737498 16.9497 2.05025C18.2625 3.36301 19 5.14348 19 7ZM17 7C17 5.67392 16.4732 4.40215 15.5355 3.46447C14.5979 2.52678 13.3261 2 12 2C10.6739 2 9.40215 2.52678 8.46447 3.46447C7.52678 4.40215 7 5.67392 7 7C7 8.32608 7.52678 9.59785 8.46447 10.5355C9.40215 11.4732 10.6739 12 12 12C13.3261 12 14.5979 11.4732 15.5355 10.5355C16.4732 9.59785 17 8.32608 17 7ZM3.5 16C2.57174 16 1.6815 16.3687 1.02513 17.0251C0.368749 17.6815 0 18.5717 0 19.5V20C0 22.393 1.523 24.417 3.685 25.793C5.859 27.177 8.802 28 12 28C15.198 28 18.14 27.177 20.315 25.793C22.477 24.417 24 22.393 24 20V19.5C24 18.5717 23.6313 17.6815 22.9749 17.0251C22.3185 16.3687 21.4283 16 20.5 16H3.5ZM2 19.5C2 19.1022 2.15803 18.7206 2.43934 18.4393C2.72064 18.158 3.10217 18 3.5 18H20.5C20.8978 18 21.2794 18.158 21.5607 18.4393C21.842 18.7206 22 19.1022 22 19.5V20C22 21.473 21.06 22.949 19.241 24.106C17.434 25.256 14.877 26 12 26C9.123 26 6.566 25.256 4.759 24.106C2.939 22.95 2 21.472 2 20V19.5Z" fill="#014E56" fill-opacity="0.6"></path>
  </symbol>

  <symbol fill="none" xmlns="http://www.w3.org/2000/svg" viewBox="0 0 34 34" id="google">
    <path d="M33.6694 13.6705H32.3V13.6H17V20.4H26.6076C25.2059 24.3584 21.4396 27.2 17 27.2C11.3671 27.2 6.8 22.6329 6.8 17C6.8 11.367 11.3671 6.8 17 6.8C19.6002 6.8 21.9657 7.7809 23.7669 9.38315L28.5753 4.5747C25.5391 1.74505 21.4778 0 17 0C7.61175 0 0 7.61175 0 17C0 26.3882 7.61175 34 17 34C26.3883 34 34 26.3882 34 17C34 15.8601 33.8827 14.7475 33.6694 13.6705Z" fill="#FFC107"></path>
    <path d="M1.96011 9.08735L7.54546 13.1835C9.05676 9.4418 12.7169 6.8 17 6.8C19.6002 6.8 21.9657 7.7809 23.7669 9.38315L28.5753 4.5747C25.5391 1.74505 21.4778 0 17 0C10.4703 0 4.80761 3.68645 1.96011 9.08735Z" fill="#FF3D00"></path>
    <path d="M17 34C21.3911 34 25.381 32.3196 28.3977 29.5868L23.1362 25.1345C21.372 26.4762 19.2163 27.2018 17 27.2C12.5783 27.2 8.82385 24.3806 7.40945 20.4459L1.86575 24.7172C4.67925 30.2226 10.393 34 17 34Z" fill="#4CAF50"></path>
    <path d="M33.6694 13.6705H32.3V13.6H17V20.4H26.6076C25.9371 22.2839 24.7294 23.9302 23.1336 25.1353L23.1362 25.1336L28.3977 29.5859C28.0254 29.9242 34 25.5 34 17C34 15.8601 33.8827 14.7475 33.6694 13.6705Z" fill="#1976D2"></path>
  </symbol>
  <symbol fill="currentColor" xmlns="http://www.w3.org/2000/svg" viewBox="0 0 30 23" id="show">
    <path d="M16.7432 3.97661C16.1709 3.92297 15.5894 3.89222 15 3.88457C12.4244 3.89447 9.75443 4.43744 7.22718 5.47785C5.35073 6.28216 3.52285 7.41765 1.93543 8.81829C1.1558 9.53329 0.160775 10.5686 0 11.6731C0.019 12.63 1.20383 13.811 1.93543 14.528C3.424 15.8736 5.20428 16.9766 7.22718 17.8685C7.29593 17.8974 7.36493 17.926 7.43408 17.9541L5.55728 20.7947L8.1074 22.1009L21.8928 1.30017L19.4382 0L16.7432 3.97661ZM22.5641 5.39532L20.6909 8.20889C21.5527 9.17917 22.0642 10.3757 22.0642 11.6731C22.0642 14.907 18.9012 17.5289 14.9982 17.5289C14.8294 17.5289 14.6659 17.5131 14.5001 17.5035L13.2605 19.3633C13.8322 19.4164 14.4102 19.455 15 19.4617C17.5781 19.4517 20.2465 18.9025 22.771 17.8685C24.6474 17.0641 26.4771 15.9287 28.0646 14.528C28.8442 13.813 29.8392 12.7777 30 11.6731C29.981 10.7163 28.7962 9.5353 28.0646 8.81827C26.576 7.47264 24.7939 6.36965 22.771 5.47781C22.7027 5.44912 22.6328 5.42332 22.5641 5.39532ZM14.9982 5.81746C15.1693 5.81746 15.3391 5.82339 15.5072 5.83332L14.0552 8.01214C12.0173 8.3702 10.4883 9.87287 10.4883 11.6716C10.4883 12.1234 10.5843 12.556 10.7611 12.9569C10.7613 12.9574 10.7609 12.9581 10.7611 12.9586L9.3054 15.1437C8.44163 14.1726 7.9321 12.9721 7.9321 11.6731C7.93213 8.43925 11.0952 5.81743 14.9982 5.81746ZM19.2224 10.4115L15.9503 15.3246C17.9772 14.9598 19.4953 13.464 19.4953 11.6716C19.4953 11.228 19.3931 10.8062 19.2224 10.4115Z" fill="#014E56" fill-opacity="0.6"></path>
  </symbol>
    <symbol fill="currentColor" xmlns="http://www.w3.org/2000/svg" viewBox="0 0 24 24" id="lightmode">
    <path d="M18 12C18 13.5913 17.3679 15.1174 16.2426 16.2426C15.1174 17.3679 13.5913 18 12 18C10.4087 18 8.88258 17.3679 7.75736 16.2426C6.63214 15.1174 6 13.5913 6 12C6 10.4087 6.63214 8.88258 7.75736 7.75736C8.88258 6.63214 10.4087 6 12 6C13.5913 6 15.1174 6.63214 16.2426 7.75736C17.3679 8.88258 18 10.4087 18 12Z"></path>
    <path fill-rule="evenodd" clip-rule="evenodd" d="M12 1.25C12.1989 1.25 12.3897 1.32902 12.5303 1.46967C12.671 1.61032 12.75 1.80109 12.75 2V3C12.75 3.19891 12.671 3.38968 12.5303 3.53033C12.3897 3.67098 12.1989 3.75 12 3.75C11.8011 3.75 11.6103 3.67098 11.4697 3.53033C11.329 3.38968 11.25 3.19891 11.25 3V2C11.25 1.80109 11.329 1.61032 11.4697 1.46967C11.6103 1.32902 11.8011 1.25 12 1.25ZM4.399 4.399C4.53963 4.25855 4.73025 4.17966 4.929 4.17966C5.12775 4.17966 5.31837 4.25855 5.459 4.399L5.852 4.791C5.98869 4.93239 6.06437 5.1218 6.06276 5.31845C6.06114 5.5151 5.98235 5.70325 5.84336 5.84237C5.70437 5.98149 5.5163 6.06046 5.31965 6.06226C5.123 6.06406 4.93352 5.98855 4.792 5.852L4.399 5.459C4.25855 5.31837 4.17966 5.12775 4.17966 4.929C4.17966 4.73025 4.25855 4.53963 4.399 4.399ZM19.601 4.399C19.7415 4.53963 19.8203 4.73025 19.8203 4.929C19.8203 5.12775 19.7415 5.31837 19.601 5.459L19.208 5.852C19.0658 5.98448 18.8778 6.0566 18.6835 6.05317C18.4892 6.04975 18.3038 5.97103 18.1664 5.83362C18.029 5.69621 17.9503 5.51082 17.9468 5.31652C17.9434 5.12222 18.0155 4.93417 18.148 4.792L18.541 4.399C18.6816 4.25855 18.8722 4.17966 19.071 4.17966C19.2697 4.17966 19.4604 4.25855 19.601 4.399ZM1.25 12C1.25 11.8011 1.32902 11.6103 1.46967 11.4697C1.61032 11.329 1.80109 11.25 2 11.25H3C3.19891 11.25 3.38968 11.329 3.53033 11.4697C3.67098 11.6103 3.75 11.8011 3.75 12C3.75 12.1989 3.67098 12.3897 3.53033 12.5303C3.38968 12.671 3.19891 12.75 3 12.75H2C1.80109 12.75 1.61032 12.671 1.46967 12.5303C1.32902 12.3897 1.25 12.1989 1.25 12ZM20.25 12C20.25 11.8011 20.329 11.6103 20.4697 11.4697C20.6103 11.329 20.8011 11.25 21 11.25H22C22.1989 11.25 22.3897 11.329 22.5303 11.4697C22.671 11.6103 22.75 11.8011 22.75 12C22.75 12.1989 22.671 12.3897 22.5303 12.5303C22.3897 12.671 22.1989 12.75 22 12.75H21C20.8011 12.75 20.6103 12.671 20.4697 12.5303C20.329 12.3897 20.25 12.1989 20.25 12ZM18.148 18.148C18.2886 18.0076 18.4792 17.9287 18.678 17.9287C18.8768 17.9287 19.0674 18.0076 19.208 18.148L19.601 18.541C19.6747 18.6097 19.7338 18.6925 19.7748 18.7845C19.8158 18.8765 19.8378 18.9758 19.8396 19.0765C19.8414 19.1772 19.8228 19.2772 19.7851 19.3706C19.7474 19.464 19.6913 19.5488 19.62 19.62C19.5488 19.6913 19.464 19.7474 19.3706 19.7851C19.2772 19.8228 19.1772 19.8414 19.0765 19.8396C18.9758 19.8378 18.8765 19.8158 18.7845 19.7748C18.6925 19.7338 18.6097 19.6747 18.541 19.601L18.148 19.208C18.0076 19.0674 17.9287 18.8768 17.9287 18.678C17.9287 18.4792 18.0076 18.2886 18.148 18.148ZM5.852 18.148C5.99245 18.2886 6.07134 18.4792 6.07134 18.678C6.07134 18.8768 5.99245 19.0674 5.852 19.208L5.459 19.601C5.39034 19.6747 5.30754 19.7338 5.21554 19.7748C5.12354 19.8158 5.02423 19.8378 4.92352 19.8396C4.82282 19.8414 4.72279 19.8228 4.6294 19.7851C4.53601 19.7474 4.45118 19.6913 4.37996 19.62C4.30874 19.5488 4.2526 19.464 4.21488 19.3706C4.17716 19.2772 4.15863 19.1772 4.16041 19.0765C4.16219 18.9758 4.18423 18.8765 4.22522 18.7845C4.26621 18.6925 4.32531 18.6097 4.399 18.541L4.791 18.148C4.86065 18.0783 4.94335 18.023 5.03438 17.9853C5.1254 17.9476 5.22297 17.9282 5.3215 17.9282C5.42003 17.9282 5.5176 17.9476 5.60862 17.9853C5.69965 18.023 5.78235 18.0783 5.852 18.148ZM12 20.25C12.1989 20.25 12.3897 20.329 12.5303 20.4697C12.671 20.6103 12.75 20.8011 12.75 21V22C12.75 22.1989 12.671 22.3897 12.5303 22.5303C12.3897 22.671 12.1989 22.75 12 22.75C11.8011 22.75 11.6103 22.671 11.4697 22.5303C11.329 22.3897 11.25 22.1989 11.25 22V21C11.25 20.8011 11.329 20.6103 11.4697 20.4697C11.6103 20.329 11.8011 20.25 12 20.25Z"></path>
  </symbol>
</svg>